{"glyphs":{"0":{"ha":1215,"x_min":0,"x_max":1042,"o":"m 174 1215 l 868 1215 l 868 1042 l 1042 1042 l 1042 174 l 868 174 l 868 0 l 174 0 l 174 174 l 0 174 l 0 1042 l 174 1042 l 174 1215 m 347 1042 l 347 174 l 694 174 l 694 1042 l 347 1042 z "},"1":{"ha":1215,"x_min":0,"x_max":1042,"o":"m 347 1215 l 694 1215 l 694 174 l 1042 174 l 1042 0 l 0 0 l 0 174 l 347 174 l 347 694 l 174 694 l 174 868 l 347 868 l 347 1215 z "},"2":{"ha":1215,"x_min":0,"x_max":1042,"o":"m 174 1215 l 868 1215 l 868 1042 l 1042 1042 l 1042 694 l 868 694 l 868 521 l 521 521 l 521 694 l 694 694 l 694 1042 l 347 1042 l 347 868 l 0 868 l 0 1042 l 174 1042 l 174 1215 m 174 521 l 521 521 l 521 347 l 347 347 l 347 174 l 1042 174 l 1042 0 l 0 0 l 0 347 l 174 347 l 174 521 z "},"3":{"ha":1215,"x_min":0,"x_max":1042,"o":"m 174 1215 l 868 1215 l 868 1042 l 1042 1042 l 1042 694 l 868 694 l 868 521 l 1042 521 l 1042 174 l 868 174 l 868 0 l 174 0 l 174 174 l 0 174 l 0 347 l 347 347 l 347 174 l 694 174 l 694 521 l 347 521 l 347 694 l 694 694 l 694 1042 l 347 1042 l 347 868 l 0 868 l 0 1042 l 174 1042 l 174 1215 z "},"4":{"ha":1389,"x_min":0,"x_max":1215,"o":"m 694 1215 l 1042 1215 l 1042 521 l 1215 521 l 1215 347 l 1042 347 l 1042 0 l 694 0 l 694 347 l 0 347 l 0 694 l 347 694 l 347 521 l 694 521 l 694 694 l 347 694 l 347 868 l 521 868 l 521 1042 l 694 1042 l 694 1215 z "},"5":{"ha":1215,"x_min":0,"x_max":1042,"o":"m 0 1215 l 1042 1215 l 1042 1042 l 347 1042 l 347 868 l 868 868 l 868 694 l 1042 694 l 1042 174 l 868 174 l 868 0 l 174 0 l 174 174 l 0 174 l 0 347 l 347 347 l 347 174 l 694 174 l 694 694 l 0 694 l 0 1215 z "},"6":{"ha":1215,"x_min":0,"x_max":1042,"o":"m 174 1215 l 868 1215 l 868 1042 l 1042 1042 l 1042 868 l 694 868 l 694 1042 l 347 1042 l 347 694 l 868 694 l 868 521 l 1042 521 l 1042 174 l 868 174 l 868 0 l 174 0 l 174 174 l 0 174 l 0 1042 l 174 1042 l 174 1215 m 347 521 l 347 174 l 694 174 l 694 521 l 347 521 z "},"7":{"ha":1215,"x_min":0,"x_max":1042,"o":"m 0 1215 l 1042 1215 l 1042 868 l 868 868 l 868 694 l 694 694 l 694 0 l 347 0 l 347 694 l 521 694 l 521 868 l 694 868 l 694 1042 l 347 1042 l 347 868 l 0 868 l 0 1215 z "},"8":{"ha":1215,"x_min":0,"x_max":1042,"o":"m 174 1215 l 868 1215 l 868 1042 l 1042 1042 l 1042 694 l 868 694 l 868 521 l 1042 521 l 1042 174 l 868 174 l 868 0 l 174 0 l 174 174 l 0 174 l 0 521 l 174 521 l 174 694 l 0 694 l 0 1042 l 174 1042 l 174 1215 m 347 1042 l 347 694 l 694 694 l 694 1042 l 347 1042 m 347 521 l 347 174 l 694 174 l 694 521 l 347 521 z "},"9":{"ha":1215,"x_min":0,"x_max":1042,"o":"m 174 1215 l 868 1215 l 868 1042 l 1042 1042 l 1042 174 l 868 174 l 868 0 l 174 0 l 174 174 l 0 174 l 0 347 l 347 347 l 347 174 l 694 174 l 694 521 l 174 521 l 174 694 l 0 694 l 0 1042 l 174 1042 l 174 1215 m 347 1042 l 347 694 l 694 694 l 694 1042 l 347 1042 z "}," ":{"ha":694,"x_min":0,"x_max":0,"o":""},"!":{"ha":521,"x_min":0,"x_max":347,"o":"m 0 1215 l 347 1215 l 347 521 l 0 521 l 0 1215 m 0 174 l 347 174 l 347 0 l 0 0 l 0 174 z "},"\"":{"ha":1215,"x_min":0,"x_max":1042,"o":"m 0 1215 l 347 1215 l 347 694 l 0 694 l 0 1215 m 694 1215 l 1042 1215 l 1042 694 l 694 694 l 694 1215 z "},"#":{"ha":1563,"x_min":0,"x_max":1389,"o":"m 174 1215 l 521 1215 l 521 868 l 868 868 l 868 1215 l 1215 1215 l 1215 868 l 1389 868 l 1389 694 l 1215 694 l 1215 521 l 1389 521 l 1389 347 l 1215 347 l 1215 0 l 868 0 l 868 347 l 521 347 l 521 0 l 174 0 l 174 347 l 0 347 l 0 521 l 174 521 l 174 694 l 0 694 l 0 868 l 174 868 l 174 1215 m 521 694 l 521 521 l 868 521 l 868 694 l 521 694 z "},"$":{"ha":1215,"x_min":0,"x_max":1042,"o":"m 347 1215 l 694 1215 l 694 1042 l 1042 1042 l 1042 868 l 347 868 l 347 694 l 868 694 l 868 521 l 1042 521 l 1042 347 l 868 347 l 868 174 l 694 174 l 694 0 l 347 0 l 347 174 l 0 174 l 0 347 l 694 347 l 694 521 l 174 521 l 174 694 l 0 694 l 0 868 l 174 868 l 174 1042 l 347 1042 l 347 1215 z "},"%":{"ha":1215,"x_min":0,"x_max":1042,"o":"m 0 1215 l 347 1215 l 347 868 l 0 868 l 0 1215 m 868 1215 l 1042 1215 l 1042 868 l 868 868 l 868 694 l 694 694 l 694 521 l 521 521 l 521 347 l 347 347 l 347 174 l 174 174 l 174 0 l 0 0 l 0 347 l 174 347 l 174 521 l 347 521 l 347 694 l 521 694 l 521 868 l 694 868 l 694 1042 l 868 1042 l 868 1215 m 694 347 l 1042 347 l 1042 0 l 694 0 l 694 347 z "},"&":{"ha":1389,"x_min":0,"x_max":1215,"o":"m 174 1215 l 868 1215 l 868 1042 l 1042 1042 l 1042 868 l 868 868 l 868 694 l 694 694 l 694 521 l 347 521 l 347 174 l 694 174 l 694 521 l 1215 521 l 1215 347 l 1042 347 l 1042 174 l 1215 174 l 1215 0 l 174 0 l 174 174 l 0 174 l 0 521 l 174 521 l 174 868 l 0 868 l 0 1042 l 174 1042 l 174 1215 m 347 1042 l 347 868 l 694 868 l 694 1042 l 347 1042 z "},"'":{"ha":694,"x_min":0,"x_max":521,"o":"m 347 1215 l 521 1215 l 521 1042 l 347 1042 l 347 1215 m 174 1042 l 347 1042 l 347 868 l 174 868 l 174 1042 m 0 868 l 174 868 l 174 694 l 0 694 l 0 868 z "},"(":{"ha":868,"x_min":0,"x_max":694,"o":"m 347 1215 l 694 1215 l 694 1042 l 521 1042 l 521 868 l 347 868 l 347 347 l 521 347 l 521 174 l 694 174 l 694 0 l 347 0 l 347 174 l 174 174 l 174 347 l 0 347 l 0 868 l 174 868 l 174 1042 l 347 1042 l 347 1215 z "},")":{"ha":868,"x_min":0,"x_max":694,"o":"m 0 1215 l 347 1215 l 347 1042 l 521 1042 l 521 868 l 694 868 l 694 347 l 521 347 l 521 174 l 347 174 l 347 0 l 0 0 l 0 174 l 174 174 l 174 347 l 347 347 l 347 868 l 174 868 l 174 1042 l 0 1042 l 0 1215 z "},"*":{"ha":1563,"x_min":0,"x_max":1389,"o":"m 174 1042 l 521 1042 l 521 868 l 868 868 l 868 1042 l 1215 1042 l 1215 868 l 1042 868 l 1042 694 l 1389 694 l 1389 521 l 1042 521 l 1042 347 l 1215 347 l 1215 174 l 868 174 l 868 347 l 521 347 l 521 174 l 174 174 l 174 347 l 347 347 l 347 521 l 0 521 l 0 694 l 347 694 l 347 868 l 174 868 l 174 1042 z "},"+":{"ha":1215,"x_min":0,"x_max":1042,"o":"m 347 1042 l 694 1042 l 694 694 l 1042 694 l 1042 521 l 694 521 l 694 174 l 347 174 l 347 521 l 0 521 l 0 694 l 347 694 l 347 1042 z "},",":{"ha":694,"x_min":0,"x_max":521,"o":"m 174 347 l 521 347 l 521 0 l 347 0 l 347 -174 l 0 -174 l 0 0 l 174 0 l 174 347 z "},"-":{"ha":1215,"x_min":0,"x_max":1042,"o":"m 0 694 l 1042 694 l 1042 521 l 0 521 l 0 694 z "},".":{"ha":521,"x_min":0,"x_max":347,"o":"m 0 347 l 347 347 l 347 0 l 0 0 l 0 347 z "},"/":{"ha":1389,"x_min":0,"x_max":1215,"o":"m 868 1042 l 1215 1042 l 1215 868 l 1042 868 l 1042 694 l 868 694 l 868 521 l 694 521 l 694 347 l 521 347 l 521 174 l 347 174 l 347 0 l 0 0 l 0 174 l 174 174 l 174 347 l 347 347 l 347 521 l 521 521 l 521 694 l 694 694 l 694 868 l 868 868 l 868 1042 z "},":":{"ha":521,"x_min":0,"x_max":347,"o":"m 0 868 l 347 868 l 347 694 l 0 694 l 0 868 m 0 347 l 347 347 l 347 174 l 0 174 l 0 347 z "},";":{"ha":694,"x_min":0,"x_max":521,"o":"m 174 868 l 521 868 l 521 694 l 174 694 l 174 868 m 174 347 l 521 347 l 521 0 l 347 0 l 347 -174 l 0 -174 l 0 0 l 174 0 l 174 347 z "},"<":{"ha":1215,"x_min":0,"x_max":1042,"o":"m 521 1215 l 1042 1215 l 1042 1042 l 694 1042 l 694 868 l 521 868 l 521 694 l 347 694 l 347 521 l 521 521 l 521 347 l 694 347 l 694 174 l 1042 174 l 1042 0 l 521 0 l 521 174 l 347 174 l 347 347 l 174 347 l 174 521 l 0 521 l 0 694 l 174 694 l 174 868 l 347 868 l 347 1042 l 521 1042 l 521 1215 z "},"=":{"ha":1215,"x_min":0,"x_max":1042,"o":"m 0 868 l 1042 868 l 1042 694 l 0 694 l 0 868 m 0 521 l 1042 521 l 1042 347 l 0 347 l 0 521 z "},">":{"ha":1215,"x_min":0,"x_max":1042,"o":"m 0 1215 l 521 1215 l 521 1042 l 694 1042 l 694 868 l 868 868 l 868 694 l 1042 694 l 1042 521 l 868 521 l 868 347 l 694 347 l 694 174 l 521 174 l 521 0 l 0 0 l 0 174 l 347 174 l 347 347 l 521 347 l 521 521 l 694 521 l 694 694 l 521 694 l 521 868 l 347 868 l 347 1042 l 0 1042 l 0 1215 z "},"?":{"ha":1215,"x_min":0,"x_max":1042,"o":"m 174 1215 l 868 1215 l 868 1042 l 1042 1042 l 1042 694 l 868 694 l 868 521 l 694 521 l 694 347 l 347 347 l 347 521 l 521 521 l 521 694 l 694 694 l 694 1042 l 347 1042 l 347 868 l 0 868 l 0 1042 l 174 1042 l 174 1215 m 347 174 l 694 174 l 694 0 l 347 0 l 347 174 z "},"@":{"ha":1389,"x_min":0,"x_max":1215,"o":"m 521 694 l 521 347 l 694 347 l 694 694 l 521 694 m 521 694 l 521 868 l 868 868 l 868 347 l 1042 347 l 1042 174 l 347 174 l 347 694 l 521 694 m 174 0 l 1042 0 l 1042 -174 l 174 -174 l 174 0 m 1042 1042 l 1215 1042 l 1215 347 l 1042 347 l 1042 1042 m 0 1042 l 174 1042 l 174 0 l 0 0 l 0 1042 m 174 1215 l 1042 1215 l 1042 1042 l 174 1042 l 174 1215 z "},"A":{"ha":1215,"x_min":0,"x_max":1042,"o":"m 347 1215 l 694 1215 l 694 1042 l 868 1042 l 868 868 l 1042 868 l 1042 0 l 694 0 l 694 521 l 347 521 l 347 0 l 0 0 l 0 868 l 174 868 l 174 1042 l 347 1042 l 347 1215 m 347 868 l 347 694 l 694 694 l 694 868 l 347 868 z "},"B":{"ha":1215,"x_min":0,"x_max":1042,"o":"m 0 1215 l 868 1215 l 868 1042 l 1042 1042 l 1042 694 l 868 694 l 868 521 l 1042 521 l 1042 174 l 868 174 l 868 0 l 0 0 l 0 1215 m 347 1042 l 347 694 l 694 694 l 694 1042 l 347 1042 m 347 521 l 347 174 l 694 174 l 694 521 l 347 521 z "},"C":{"ha":1215,"x_min":0,"x_max":1042,"o":"m 174 1215 l 868 1215 l 868 1042 l 1042 1042 l 1042 868 l 694 868 l 694 1042 l 347 1042 l 347 174 l 694 174 l 694 347 l 1042 347 l 1042 174 l 868 174 l 868 0 l 174 0 l 174 174 l 0 174 l 0 1042 l 174 1042 l 174 1215 z "},"D":{"ha":1215,"x_min":0,"x_max":1042,"o":"m 0 1215 l 694 1215 l 694 1042 l 868 1042 l 868 868 l 1042 868 l 1042 347 l 868 347 l 868 174 l 694 174 l 694 0 l 0 0 l 0 1215 m 347 1042 l 347 174 l 521 174 l 521 347 l 694 347 l 694 868 l 521 868 l 521 1042 l 347 1042 z "},"E":{"ha":1215,"x_min":0,"x_max":1042,"o":"m 0 1215 l 1042 1215 l 1042 1042 l 347 1042 l 347 694 l 694 694 l 694 521 l 347 521 l 347 174 l 1042 174 l 1042 0 l 0 0 l 0 1215 z "},"F":{"ha":1215,"x_min":0,"x_max":1042,"o":"m 0 1215 l 1042 1215 l 1042 1042 l 347 1042 l 347 694 l 694 694 l 694 521 l 347 521 l 347 0 l 0 0 l 0 1215 z "},"G":{"ha":1215,"x_min":0,"x_max":1042,"o":"m 174 1215 l 868 1215 l 868 1042 l 1042 1042 l 1042 868 l 694 868 l 694 1042 l 347 1042 l 347 174 l 694 174 l 694 521 l 521 521 l 521 694 l 1042 694 l 1042 174 l 868 174 l 868 0 l 174 0 l 174 174 l 0 174 l 0 1042 l 174 1042 l 174 1215 z "},"H":{"ha":1215,"x_min":0,"x_max":1042,"o":"m 0 1215 l 347 1215 l 347 694 l 694 694 l 694 1215 l 1042 1215 l 1042 0 l 694 0 l 694 521 l 347 521 l 347 0 l 0 0 l 0 1215 z "},"I":{"ha":868,"x_min":0,"x_max":694,"o":"m 0 1215 l 694 1215 l 694 1042 l 521 1042 l 521 174 l 694 174 l 694 0 l 0 0 l 0 174 l 174 174 l 174 1042 l 0 1042 l 0 1215 z "},"J":{"ha":1215,"x_min":0,"x_max":1042,"o":"m 347 1215 l 1042 1215 l 1042 1042 l 868 1042 l 868 174 l 694 174 l 694 0 l 174 0 l 174 174 l 0 174 l 0 347 l 347 347 l 347 174 l 521 174 l 521 1042 l 347 1042 l 347 1215 z "},"K":{"ha":1215,"x_min":0,"x_max":1042,"o":"m 0 1215 l 347 1215 l 347 868 l 521 868 l 521 1042 l 694 1042 l 694 1215 l 1042 1215 l 1042 1042 l 868 1042 l 868 868 l 694 868 l 694 694 l 521 694 l 521 521 l 694 521 l 694 347 l 868 347 l 868 174 l 1042 174 l 1042 0 l 694 0 l 694 174 l 521 174 l 521 347 l 347 347 l 347 0 l 0 0 l 0 1215 z "},"L":{"ha":1215,"x_min":0,"x_max":1042,"o":"m 0 1215 l 347 1215 l 347 174 l 1042 174 l 1042 0 l 0 0 l 0 1215 z "},"M":{"ha":1389,"x_min":0,"x_max":1215,"o":"m 0 1215 l 347 1215 l 347 1042 l 521 1042 l 521 868 l 694 868 l 694 1042 l 868 1042 l 868 1215 l 1215 1215 l 1215 0 l 868 0 l 868 694 l 694 694 l 694 521 l 521 521 l 521 694 l 347 694 l 347 0 l 0 0 l 0 1215 z "},"N":{"ha":1215,"x_min":0,"x_max":1042,"o":"m 0 1215 l 347 1215 l 347 1042 l 521 1042 l 521 868 l 694 868 l 694 1215 l 1042 1215 l 1042 0 l 694 0 l 694 347 l 521 347 l 521 521 l 347 521 l 347 0 l 0 0 l 0 1215 z "},"P":{"ha":1215,"x_min":0,"x_max":1042,"o":"m 0 1215 l 868 1215 l 868 1042 l 1042 1042 l 1042 694 l 868 694 l 868 521 l 347 521 l 347 0 l 0 0 l 0 1215 m 347 1042 l 347 694 l 694 694 l 694 1042 l 347 1042 z "},"Q":{"ha":1215,"x_min":0,"x_max":1042,"o":"m 174 1215 l 868 1215 l 868 1042 l 1042 1042 l 1042 347 l 868 347 l 868 174 l 1042 174 l 1042 0 l 521 0 l 521 174 l 174 174 l 174 347 l 0 347 l 0 1042 l 174 1042 l 174 1215 m 347 1042 l 347 347 l 694 347 l 694 1042 l 347 1042 z "},"R":{"ha":1215,"x_min":0,"x_max":1042,"o":"m 0 1215 l 868 1215 l 868 1042 l 1042 1042 l 1042 694 l 868 694 l 868 521 l 694 521 l 694 347 l 868 347 l 868 174 l 1042 174 l 1042 0 l 694 0 l 694 174 l 521 174 l 521 347 l 347 347 l 347 0 l 0 0 l 0 1215 m 347 1042 l 347 694 l 694 694 l 694 1042 l 347 1042 z "},"S":{"ha":1215,"x_min":0,"x_max":1042,"o":"m 174 1215 l 868 1215 l 868 1042 l 1042 1042 l 1042 868 l 694 868 l 694 1042 l 347 1042 l 347 694 l 868 694 l 868 521 l 1042 521 l 1042 174 l 868 174 l 868 0 l 174 0 l 174 174 l 0 174 l 0 347 l 347 347 l 347 174 l 694 174 l 694 521 l 174 521 l 174 694 l 0 694 l 0 1042 l 174 1042 l 174 1215 z "},"T":{"ha":1215,"x_min":0,"x_max":1042,"o":"m 0 1215 l 1042 1215 l 1042 1042 l 694 1042 l 694 0 l 347 0 l 347 1042 l 0 1042 l 0 1215 z "},"U":{"ha":1215,"x_min":0,"x_max":1042,"o":"m 0 1215 l 347 1215 l 347 174 l 694 174 l 694 1215 l 1042 1215 l 1042 174 l 868 174 l 868 0 l 174 0 l 174 174 l 0 174 l 0 1215 z "},"V":{"ha":1215,"x_min":0,"x_max":1042,"o":"m 0 1215 l 347 1215 l 347 347 l 694 347 l 694 1215 l 1042 1215 l 1042 347 l 868 347 l 868 174 l 694 174 l 694 0 l 347 0 l 347 174 l 174 174 l 174 347 l 0 347 l 0 1215 z "},"W":{"ha":1389,"x_min":0,"x_max":1215,"o":"m 0 1215 l 347 1215 l 347 521 l 521 521 l 521 694 l 694 694 l 694 521 l 868 521 l 868 1215 l 1215 1215 l 1215 0 l 868 0 l 868 174 l 694 174 l 694 347 l 521 347 l 521 174 l 347 174 l 347 0 l 0 0 l 0 1215 z "},"X":{"ha":1215,"x_min":0,"x_max":1042,"o":"m 0 1215 l 347 1215 l 347 868 l 694 868 l 694 1215 l 1042 1215 l 1042 868 l 868 868 l 868 694 l 694 694 l 694 521 l 868 521 l 868 347 l 1042 347 l 1042 0 l 694 0 l 694 347 l 347 347 l 347 0 l 0 0 l 0 347 l 174 347 l 174 521 l 347 521 l 347 694 l 174 694 l 174 868 l 0 868 l 0 1215 z "},"Y":{"ha":1215,"x_min":0,"x_max":1042,"o":"m 0 1215 l 347 1215 l 347 694 l 694 694 l 694 1215 l 1042 1215 l 1042 694 l 868 694 l 868 521 l 694 521 l 694 0 l 347 0 l 347 521 l 174 521 l 174 694 l 0 694 l 0 1215 z "},"Z":{"ha":1215,"x_min":0,"x_max":1042,"o":"m 0 1215 l 1042 1215 l 1042 868 l 868 868 l 868 694 l 694 694 l 694 521 l 521 521 l 521 347 l 347 347 l 347 174 l 1042 174 l 1042 0 l 0 0 l 0 347 l 174 347 l 174 521 l 347 521 l 347 694 l 521 694 l 521 868 l 694 868 l 694 1042 l 0 1042 l 0 1215 z "},"[":{"ha":694,"x_min":0,"x_max":521,"o":"m 0 1215 l 521 1215 l 521 1042 l 347 1042 l 347 174 l 521 174 l 521 0 l 0 0 l 0 1215 z "},"\\":{"ha":1389,"x_min":0,"x_max":1215,"o":"m 347 868 l 521 868 l 521 694 l 694 694 l 694 521 l 868 521 l 868 347 l 1042 347 l 1042 174 l 1215 174 l 1215 0 l 868 0 l 868 174 l 694 174 l 694 347 l 521 347 l 521 521 l 347 521 l 347 694 l 174 694 l 174 868 l 0 868 l 0 1042 l 347 1042 l 347 868 z "},"]":{"ha":694,"x_min":0,"x_max":521,"o":"m 521 0 l 0 0 l 0 174 l 174 174 l 174 1042 l 0 1042 l 0 1215 l 521 1215 l 521 0 z "},"^":{"ha":868,"x_min":0,"x_max":694,"o":"m 174 1215 l 521 1215 l 521 1042 l 174 1042 l 174 1215 m 0 1042 l 174 1042 l 174 868 l 0 868 l 0 1042 m 521 1042 l 694 1042 l 694 868 l 521 868 l 521 1042 z "},"_":{"ha":1215,"x_min":0,"x_max":1042,"o":"m 0 0 l 1042 0 l 1042 -174 l 0 -174 l 0 0 z "},"`":{"ha":694,"x_min":0,"x_max":521,"o":"m 174 1042 l 0 1042 l 0 1215 l 347 1215 l 347 1042 l 521 1042 l 521 868 l 174 868 l 174 1042 z "},"a":{"ha":1215,"x_min":0,"x_max":1042,"o":"m 174 868 l 868 868 l 868 694 l 1042 694 l 1042 0 l 174 0 l 174 174 l 0 174 l 0 347 l 174 347 l 174 521 l 694 521 l 694 694 l 174 694 l 174 868 m 347 347 l 347 174 l 694 174 l 694 347 l 347 347 z "},"b":{"ha":1215,"x_min":0,"x_max":1042,"o":"m 0 1042 l 347 1042 l 347 694 l 868 694 l 868 521 l 1042 521 l 1042 174 l 868 174 l 868 0 l 0 0 l 0 1042 m 348 522 l 348 174 l 696 174 l 696 522 l 348 522 z "},"c":{"ha":1042,"x_min":0,"x_max":868,"o":"m 174 868 l 868 868 l 868 694 l 347 694 l 347 174 l 868 174 l 868 0 l 174 0 l 174 174 l 0 174 l 0 694 l 174 694 l 174 868 z "},"d":{"ha":1215,"x_min":0,"x_max":1042,"o":"m 694 1215 l 1042 1215 l 1042 0 l 174 0 l 174 174 l 0 174 l 0 694 l 174 694 l 174 868 l 694 868 l 694 1215 m 347 694 l 347 174 l 694 174 l 694 694 l 347 694 z "},"e":{"ha":1215,"x_min":0,"x_max":1042,"o":"m 174 868 l 868 868 l 868 694 l 1042 694 l 1042 347 l 347 347 l 347 174 l 868 174 l 868 0 l 174 0 l 174 174 l 0 174 l 0 694 l 174 694 l 174 868 m 347 694 l 347 521 l 694 521 l 694 694 l 347 694 z "},"f":{"ha":1042,"x_min":0,"x_max":868,"o":"m 347 1215 l 868 1215 l 868 1042 l 521 1042 l 521 868 l 868 868 l 868 694 l 521 694 l 521 0 l 174 0 l 174 694 l 0 694 l 0 868 l 174 868 l 174 1042 l 347 1042 l 347 1215 z "},"g":{"ha":1215,"x_min":0,"x_max":1042,"o":"m 174 868 l 1042 868 l 1042 0 l 868 0 l 868 -174 l 0 -174 l 0 0 l 694 0 l 694 174 l 174 174 l 174 347 l 0 347 l 0 694 l 174 694 l 174 868 m 347 694 l 347 347 l 694 347 l 694 694 l 347 694 z "},"h":{"ha":1215,"x_min":0,"x_max":1042,"o":"m 0 1215 l 347 1215 l 347 868 l 868 868 l 868 694 l 1042 694 l 1042 0 l 694 0 l 694 694 l 347 694 l 347 0 l 0 0 l 0 1215 z "},"i":{"ha":868,"x_min":0,"x_max":694,"o":"m 174 1042 l 521 1042 l 521 868 l 174 868 l 174 1042 m 0 694 l 521 694 l 521 174 l 694 174 l 694 0 l 0 0 l 0 174 l 174 174 l 174 521 l 0 521 l 0 694 z "},"j":{"ha":1042,"x_min":0,"x_max":868,"o":"m 521 1042 l 868 1042 l 868 868 l 521 868 l 521 1042 m 521 694 l 868 694 l 868 0 l 694 0 l 694 -174 l 0 -174 l 0 0 l 521 0 l 521 694 z "},"k":{"ha":1215,"x_min":0,"x_max":1042,"o":"m 0 1215 l 347 1215 l 347 521 l 521 521 l 521 694 l 868 694 l 868 521 l 694 521 l 694 347 l 868 347 l 868 174 l 1042 174 l 1042 0 l 694 0 l 694 174 l 521 174 l 521 347 l 347 347 l 347 0 l 0 0 l 0 1215 z "},"l":{"ha":868,"x_min":0,"x_max":694,"o":"m 0 1215 l 521 1215 l 521 174 l 694 174 l 694 0 l 0 0 l 0 174 l 174 174 l 174 1042 l 0 1042 l 0 1215 z "},"m":{"ha":1389,"x_min":0,"x_max":1215,"o":"m 0 868 l 347 868 l 347 694 l 694 694 l 694 868 l 1042 868 l 1042 694 l 1215 694 l 1215 0 l 868 0 l 868 347 l 694 347 l 694 174 l 521 174 l 521 347 l 347 347 l 347 0 l 0 0 l 0 868 z "},"n":{"ha":1215,"x_min":0,"x_max":1042,"o":"m 0 868 l 868 868 l 868 694 l 1042 694 l 1042 0 l 694 0 l 694 694 l 347 694 l 347 0 l 0 0 l 0 868 z "},"o":{"ha":1215,"x_min":0,"x_max":1042,"o":"m 174 868 l 868 868 l 868 694 l 1042 694 l 1042 174 l 868 174 l 868 0 l 174 0 l 174 174 l 0 174 l 0 694 l 174 694 l 174 868 m 347 694 l 347 174 l 694 174 l 694 694 l 347 694 z "},"p":{"ha":1215,"x_min":0,"x_max":1042,"o":"m 0 868 l 868 868 l 868 694 l 1042 694 l 1042 347 l 868 347 l 868 174 l 347 174 l 347 -174 l 0 -174 l 0 868 m 347 694 l 347 347 l 694 347 l 694 694 l 347 694 z "},"q":{"ha":1215,"x_min":0,"x_max":1042,"o":"m 174 868 l 1042 868 l 1042 -174 l 694 -174 l 694 174 l 174 174 l 174 347 l 0 347 l 0 694 l 174 694 l 174 868 m 347 694 l 347 347 l 694 347 l 694 694 l 347 694 z "},"r":{"ha":1215,"x_min":0,"x_max":1042,"o":"m 0 868 l 868 868 l 868 694 l 1042 694 l 1042 521 l 694 521 l 694 694 l 347 694 l 347 0 l 0 0 l 0 868 z "},"s":{"ha":1215,"x_min":0,"x_max":1042,"o":"m 174 868 l 1042 868 l 1042 694 l 347 694 l 347 521 l 868 521 l 868 347 l 1042 347 l 1042 174 l 868 174 l 868 0 l 0 0 l 0 174 l 694 174 l 694 347 l 174 347 l 174 521 l 0 521 l 0 694 l 174 694 l 174 868 z "},"t":{"ha":1215,"x_min":0,"x_max":1042,"o":"m 347 1215 l 694 1215 l 694 868 l 1042 868 l 1042 694 l 694 694 l 694 174 l 1042 174 l 1042 0 l 521 0 l 521 174 l 347 174 l 347 694 l 0 694 l 0 868 l 347 868 l 347 1215 z "},"u":{"ha":1215,"x_min":0,"x_max":1042,"o":"m 0 868 l 347 868 l 347 174 l 694 174 l 694 868 l 1042 868 l 1042 0 l 174 0 l 174 174 l 0 174 l 0 868 z "},"v":{"ha":1215,"x_min":0,"x_max":1042,"o":"m 0 868 l 347 868 l 347 347 l 694 347 l 694 868 l 1042 868 l 1042 347 l 868 347 l 868 174 l 694 174 l 694 0 l 347 0 l 347 174 l 174 174 l 174 347 l 0 347 l 0 868 z "},"w":{"ha":1389,"x_min":0,"x_max":1215,"o":"m 0 868 l 347 868 l 347 521 l 521 521 l 521 694 l 694 694 l 694 521 l 868 521 l 868 868 l 1215 868 l 1215 347 l 1042 347 l 1042 0 l 694 0 l 694 174 l 521 174 l 521 0 l 174 0 l 174 347 l 0 347 l 0 868 z "},"x":{"ha":1215,"x_min":0,"x_max":1042,"o":"m 0 868 l 347 868 l 347 694 l 694 694 l 694 868 l 1042 868 l 1042 694 l 868 694 l 868 521 l 694 521 l 694 347 l 868 347 l 868 174 l 1042 174 l 1042 0 l 694 0 l 694 174 l 347 174 l 347 0 l 0 0 l 0 174 l 174 174 l 174 347 l 347 347 l 347 521 l 174 521 l 174 694 l 0 694 l 0 868 z "},"y":{"ha":1215,"x_min":0,"x_max":1042,"o":"m 0 868 l 347 868 l 347 347 l 694 347 l 694 868 l 1042 868 l 1042 174 l 868 174 l 868 0 l 694 0 l 694 -174 l 0 -174 l 0 0 l 521 0 l 521 174 l 174 174 l 174 347 l 0 347 l 0 868 z "},"z":{"ha":1215,"x_min":0,"x_max":1042,"o":"m 0 868 l 1042 868 l 1042 694 l 868 694 l 868 521 l 694 521 l 694 347 l 521 347 l 521 174 l 1042 174 l 1042 0 l 0 0 l 0 174 l 174 174 l 174 347 l 347 347 l 347 521 l 521 521 l 521 694 l 0 694 l 0 868 z "},"{":{"ha":868,"x_min":0,"x_max":694,"o":"m 347 1215 l 694 1215 l 694 1042 l 521 1042 l 521 694 l 347 694 l 347 521 l 521 521 l 521 174 l 694 174 l 694 0 l 347 0 l 347 174 l 174 174 l 174 521 l 0 521 l 0 694 l 174 694 l 174 1042 l 347 1042 l 347 1215 z "},"|":{"ha":521,"x_min":0,"x_max":347,"o":"m 0 1389 l 347 1389 l 347 -174 l 0 -174 l 0 1389 z "},"}":{"ha":868,"x_min":0,"x_max":694,"o":"m 347 1042 l 521 1042 l 521 694 l 694 694 l 694 521 l 521 521 l 521 174 l 347 174 l 347 0 l 0 0 l 0 174 l 174 174 l 174 521 l 347 521 l 347 694 l 174 694 l 174 1042 l 0 1042 l 0 1215 l 347 1215 l 347 1042 z "},"~":{"ha":1389,"x_min":0,"x_max":1215,"o":"m 174 868 l 521 868 l 521 694 l 174 694 l 174 868 m 0 694 l 174 694 l 174 521 l 0 521 l 0 694 m 521 694 l 694 694 l 694 521 l 521 521 l 521 694 m 1042 694 l 1215 694 l 1215 521 l 1042 521 l 1042 694 m 694 521 l 1042 521 l 1042 347 l 694 347 l 694 521 z "},"¡":{"ha":521,"x_min":0,"x_max":347,"o":"m 0 1215 l 347 1215 l 347 1042 l 0 1042 l 0 1215 m 0 694 l 347 694 l 347 0 l 0 0 l 0 694 z "},"¢":{"ha":1042,"x_min":0,"x_max":868,"o":"m 521 1042 l 694 1042 l 694 868 l 868 868 l 868 694 l 694 694 l 694 174 l 868 174 l 868 0 l 694 0 l 694 -174 l 521 -174 l 521 0 l 174 0 l 174 174 l 0 174 l 0 694 l 174 694 l 174 868 l 521 868 l 521 1042 m 347 694 l 347 174 l 521 174 l 521 694 l 347 694 z "},"£":{"ha":1389,"x_min":0,"x_max":1215,"o":"m 347 1215 l 1042 1215 l 1042 1042 l 1215 1042 l 1215 868 l 868 868 l 868 1042 l 521 1042 l 521 694 l 694 694 l 694 521 l 521 521 l 521 174 l 1215 174 l 1215 0 l 174 0 l 174 521 l 0 521 l 0 694 l 174 694 l 174 1042 l 347 1042 l 347 1215 z "},"¤":{"ha":1042,"x_min":0,"x_max":868,"o":"m 0 868 l 174 868 l 174 694 l 0 694 l 0 868 m 694 868 l 868 868 l 868 694 l 694 694 l 694 868 m 174 694 l 694 694 l 694 174 l 174 174 l 174 694 m 347 521 l 347 347 l 521 347 l 521 521 l 347 521 m 0 174 l 174 174 l 174 0 l 0 0 l 0 174 m 694 174 l 868 174 l 868 0 l 694 0 l 694 174 z "},"¥":{"ha":1215,"x_min":0,"x_max":1042,"o":"m 0 1215 l 347 1215 l 347 694 l 694 694 l 694 1215 l 1042 1215 l 1042 694 l 868 694 l 868 521 l 694 521 l 694 347 l 1042 347 l 1042 174 l 694 174 l 694 0 l 347 0 l 347 174 l 0 174 l 0 347 l 347 347 l 347 521 l 174 521 l 174 694 l 0 694 l 0 1215 z "},"¦":{"ha":521,"x_min":0,"x_max":347,"o":"m 0 1389 l 347 1389 l 347 694 l 0 694 l 0 1389 m 0 521 l 347 521 l 347 -174 l 0 -174 l 0 521 z "},"§":{"ha":1215,"x_min":0,"x_max":1042,"o":"m 174 1215 l 868 1215 l 868 1042 l 347 1042 l 347 868 l 868 868 l 868 694 l 1042 694 l 1042 521 l 868 521 l 868 347 l 1042 347 l 1042 174 l 868 174 l 868 0 l 174 0 l 174 174 l 694 174 l 694 347 l 174 347 l 174 521 l 0 521 l 0 694 l 174 694 l 174 868 l 0 868 l 0 1042 l 174 1042 l 174 1215 m 347 694 l 347 521 l 694 521 l 694 694 l 347 694 z "},"¨":{"ha":1215,"x_min":0,"x_max":1042,"o":"m 0 1215 l 347 1215 l 347 1042 l 0 1042 l 0 1215 m 694 1215 l 1042 1215 l 1042 1042 l 694 1042 l 694 1215 z "},"©":{"ha":1389,"x_min":0,"x_max":1215,"o":"m 174 1215 l 1042 1215 l 1042 1042 l 174 1042 l 174 1215 m 0 1042 l 174 1042 l 174 0 l 0 0 l 0 1042 m 1042 1042 l 1215 1042 l 1215 0 l 1042 0 l 1042 1042 m 347 868 l 868 868 l 868 694 l 521 694 l 521 347 l 868 347 l 868 174 l 347 174 l 347 868 m 174 0 l 1042 0 l 1042 -174 l 174 -174 l 174 0 z "},"ª":{"ha":868,"x_min":0,"x_max":694,"o":"m 174 1389 l 521 1389 l 521 1215 l 174 1215 l 174 1389 m 521 1215 l 694 1215 l 694 521 l 174 521 l 174 694 l 521 694 l 521 868 l 174 868 l 174 1042 l 521 1042 l 521 1215 m 0 868 l 174 868 l 174 694 l 0 694 l 0 868 z "},"«":{"ha":1042,"x_min":0,"x_max":868,"o":"m 174 694 l 347 694 l 347 521 l 174 521 l 174 694 m 694 694 l 868 694 l 868 521 l 694 521 l 694 694 m 0 521 l 174 521 l 174 347 l 0 347 l 0 521 m 521 521 l 694 521 l 694 347 l 521 347 l 521 521 m 174 347 l 347 347 l 347 174 l 174 174 l 174 347 m 694 347 l 868 347 l 868 174 l 694 174 l 694 347 z "},"¬":{"ha":1215,"x_min":0,"x_max":1042,"o":"m 0 694 l 1042 694 l 1042 174 l 694 174 l 694 521 l 0 521 l 0 694 z "},"®":{"ha":1389,"x_min":0,"x_max":1215,"o":"m 174 1215 l 1042 1215 l 1042 1042 l 174 1042 l 174 1215 m 0 1042 l 174 1042 l 174 0 l 0 0 l 0 1042 m 1042 1042 l 1215 1042 l 1215 0 l 1042 0 l 1042 1042 m 347 868 l 868 868 l 868 521 l 694 521 l 694 694 l 521 694 l 521 521 l 694 521 l 694 347 l 521 347 l 521 174 l 347 174 l 347 868 m 694 347 l 868 347 l 868 174 l 694 174 l 694 347 m 174 0 l 1042 0 l 1042 -174 l 174 -174 l 174 0 z "},"¯":{"ha":1215,"x_min":0,"x_max":1042,"o":"m 0 1389 l 1042 1389 l 1042 1215 l 0 1215 l 0 1389 z "},"°":{"ha":694,"x_min":0,"x_max":521,"o":"m 174 1215 l 347 1215 l 347 1042 l 174 1042 l 174 1215 m 0 1042 l 174 1042 l 174 868 l 0 868 l 0 1042 m 347 1042 l 521 1042 l 521 868 l 347 868 l 347 1042 m 174 868 l 347 868 l 347 694 l 174 694 l 174 868 z "},"±":{"ha":1215,"x_min":0,"x_max":1042,"o":"m 347 174 l 347 521 l 0 521 l 0 694 l 347 694 l 347 1042 l 694 1042 l 694 694 l 1042 694 l 1042 521 l 694 521 l 694 174 l 1042 174 l 1042 0 l 0 0 l 0 174 l 347 174 z "},"²":{"ha":694,"x_min":0,"x_max":521,"o":"m 0 1389 l 347 1389 l 347 1215 l 0 1215 l 0 1389 m 347 1215 l 521 1215 l 521 1042 l 347 1042 l 347 1215 m 174 1042 l 347 1042 l 347 868 l 174 868 l 174 1042 m 0 868 l 174 868 l 174 694 l 521 694 l 521 521 l 0 521 l 0 868 z "},"³":{"ha":694,"x_min":0,"x_max":521,"o":"m 0 1389 l 347 1389 l 347 1215 l 0 1215 l 0 1389 m 347 1215 l 521 1215 l 521 694 l 347 694 l 347 868 l 174 868 l 174 1042 l 347 1042 l 347 1215 m 0 694 l 347 694 l 347 521 l 0 521 l 0 694 z "},"´":{"ha":694,"x_min":0,"x_max":521,"o":"m 347 868 l 0 868 l 0 1042 l 174 1042 l 174 1215 l 521 1215 l 521 1042 l 347 1042 l 347 868 z "},"µ":{"ha":1215,"x_min":0,"x_max":1042,"o":"m 0 868 l 347 868 l 347 174 l 694 174 l 694 868 l 1042 868 l 1042 0 l 347 0 l 347 -174 l 0 -174 l 0 868 z "},"¶":{"ha":1215,"x_min":0,"x_max":1042,"o":"m 174 1215 l 1042 1215 l 1042 1042 l 868 1042 l 868 -174 l 694 -174 l 694 1042 l 521 1042 l 521 -174 l 347 -174 l 347 521 l 174 521 l 174 694 l 0 694 l 0 1042 l 174 1042 l 174 1215 z "},"·":{"ha":347,"x_min":0,"x_max":174,"o":"m 0 694 l 174 694 l 174 521 l 0 521 l 0 694 z "},"¸":{"ha":347,"x_min":0,"x_max":174,"o":"m 0 0 l 174 0 l 174 -174 l 0 -174 l 0 0 z "},"¹":{"ha":694,"x_min":0,"x_max":521,"o":"m 174 1389 l 347 1389 l 347 694 l 521 694 l 521 521 l 0 521 l 0 694 l 174 694 l 174 1042 l 0 1042 l 0 1215 l 174 1215 l 174 1389 z "},"º":{"ha":868,"x_min":0,"x_max":694,"o":"m 174 1389 l 521 1389 l 521 1215 l 174 1215 l 174 1389 m 0 1215 l 174 1215 l 174 694 l 0 694 l 0 1215 m 521 1215 l 694 1215 l 694 694 l 521 694 l 521 1215 m 174 694 l 521 694 l 521 521 l 174 521 l 174 694 z "},"»":{"ha":1042,"x_min":0,"x_max":868,"o":"m 694 521 l 521 521 l 521 694 l 694 694 l 694 521 m 174 521 l 0 521 l 0 694 l 174 694 l 174 521 m 868 347 l 694 347 l 694 521 l 868 521 l 868 347 m 347 347 l 174 347 l 174 521 l 347 521 l 347 347 m 694 174 l 521 174 l 521 347 l 694 347 l 694 174 m 174 174 l 0 174 l 0 347 l 174 347 l 174 174 z "},"¼":{"ha":1389,"x_min":0,"x_max":1215,"o":"m 174 1215 l 347 1215 l 347 521 l 174 521 l 174 868 l 0 868 l 0 1042 l 174 1042 l 174 1215 m 1042 1215 l 1215 1215 l 1215 1042 l 1042 1042 l 1042 1215 m 868 1042 l 1042 1042 l 1042 868 l 868 868 l 868 1042 m 694 868 l 868 868 l 868 694 l 694 694 l 694 868 m 521 694 l 694 694 l 694 521 l 521 521 l 521 694 m 868 694 l 1042 694 l 1042 347 l 1215 347 l 1215 174 l 1042 174 l 1042 0 l 868 0 l 868 174 l 521 174 l 521 347 l 694 347 l 694 521 l 868 521 l 868 694 m 347 521 l 521 521 l 521 347 l 347 347 l 347 521 m 174 347 l 347 347 l 347 174 l 174 174 l 174 347 m 0 174 l 174 174 l 174 0 l 0 0 l 0 174 z "},"½":{"ha":1389,"x_min":0,"x_max":1215,"o":"m 174 1215 l 347 1215 l 347 521 l 174 521 l 174 868 l 0 868 l 0 1042 l 174 1042 l 174 1215 m 1042 1215 l 1215 1215 l 1215 1042 l 1042 1042 l 1042 1215 m 868 1042 l 1042 1042 l 1042 868 l 868 868 l 868 1042 m 694 868 l 868 868 l 868 694 l 694 694 l 694 868 m 521 694 l 694 694 l 694 521 l 521 521 l 521 694 m 868 694 l 1042 694 l 1042 521 l 868 521 l 868 694 m 347 521 l 521 521 l 521 347 l 347 347 l 347 521 m 694 521 l 868 521 l 868 347 l 694 347 l 694 521 m 1042 521 l 1215 521 l 1215 347 l 1042 347 l 1042 521 m 174 347 l 347 347 l 347 174 l 174 174 l 174 347 m 868 347 l 1042 347 l 1042 174 l 1215 174 l 1215 0 l 694 0 l 694 174 l 868 174 l 868 347 m 0 174 l 174 174 l 174 0 l 0 0 l 0 174 z "},"¾":{"ha":1389,"x_min":0,"x_max":1215,"o":"m 0 1215 l 174 1215 l 174 1042 l 0 1042 l 0 1215 m 0 174 l 174 174 l 174 0 l 0 0 l 0 174 m 174 347 l 347 347 l 347 174 l 174 174 l 174 347 m 347 521 l 521 521 l 521 347 l 347 347 l 347 521 m 0 521 l 174 521 l 174 347 l 0 347 l 0 521 m 868 694 l 1042 694 l 1042 347 l 1215 347 l 1215 174 l 1042 174 l 1042 0 l 868 0 l 868 174 l 521 174 l 521 347 l 694 347 l 694 521 l 868 521 l 868 694 m 521 694 l 694 694 l 694 521 l 521 521 l 521 694 m 694 868 l 868 868 l 868 694 l 694 694 l 694 868 m 868 1042 l 1042 1042 l 1042 868 l 868 868 l 868 1042 m 174 1042 l 347 1042 l 347 521 l 174 521 l 174 694 l 0 694 l 0 868 l 174 868 l 174 1042 m 1042 1215 l 1215 1215 l 1215 1042 l 1042 1042 l 1042 1215 z "},"¿":{"ha":1215,"x_min":0,"x_max":1042,"o":"m 347 1215 l 694 1215 l 694 1042 l 347 1042 l 347 1215 m 347 868 l 694 868 l 694 694 l 521 694 l 521 521 l 347 521 l 347 174 l 694 174 l 694 347 l 1042 347 l 1042 174 l 868 174 l 868 0 l 174 0 l 174 174 l 0 174 l 0 521 l 174 521 l 174 694 l 347 694 l 347 868 z "},"À":{"ha":1215,"x_min":0,"x_max":1042,"o":"m 347 694 l 347 521 l 694 521 l 694 694 l 347 694 m 694 1042 l 694 868 l 868 868 l 868 694 l 1042 694 l 1042 0 l 694 0 l 694 347 l 347 347 l 347 0 l 0 0 l 0 694 l 174 694 l 174 868 l 347 868 l 347 1042 l 521 1042 l 521 1215 l 347 1215 l 347 1389 l 694 1389 l 694 1215 l 868 1215 l 868 1042 l 694 1042 z "},"Á":{"ha":1215,"x_min":0,"x_max":1042,"o":"m 347 694 l 347 521 l 694 521 l 694 694 l 347 694 m 521 1042 l 694 1042 l 694 868 l 868 868 l 868 694 l 1042 694 l 1042 0 l 694 0 l 694 347 l 347 347 l 347 0 l 0 0 l 0 694 l 174 694 l 174 868 l 347 868 l 347 1042 l 174 1042 l 174 1215 l 347 1215 l 347 1389 l 694 1389 l 694 1215 l 521 1215 l 521 1042 z "},"Â":{"ha":1215,"x_min":0,"x_max":1042,"o":"m 347 1389 l 694 1389 l 694 1215 l 347 1215 l 347 1389 m 347 1042 l 694 1042 l 694 868 l 868 868 l 868 694 l 1042 694 l 1042 0 l 694 0 l 694 347 l 347 347 l 347 0 l 0 0 l 0 694 l 174 694 l 174 868 l 347 868 l 347 1042 m 347 694 l 347 521 l 694 521 l 694 694 l 347 694 z "},"Ã":{"ha":1215,"x_min":0,"x_max":1042,"o":"m 347 1042 l 694 1042 l 694 868 l 868 868 l 868 694 l 1042 694 l 1042 0 l 694 0 l 694 347 l 347 347 l 347 0 l 0 0 l 0 694 l 174 694 l 174 868 l 347 868 l 347 1042 m 347 694 l 347 521 l 694 521 l 694 694 l 347 694 m 174 1389 l 868 1389 l 868 1215 l 174 1215 l 174 1389 z "},"Ä":{"ha":1215,"x_min":0,"x_max":1042,"o":"m 0 1215 l 347 1215 l 347 1042 l 0 1042 l 0 1215 m 694 1215 l 1042 1215 l 1042 1042 l 694 1042 l 694 1215 m 347 1042 l 694 1042 l 694 868 l 868 868 l 868 694 l 1042 694 l 1042 0 l 694 0 l 694 347 l 347 347 l 347 0 l 0 0 l 0 694 l 174 694 l 174 868 l 347 868 l 347 1042 m 347 694 l 347 521 l 694 521 l 694 694 l 347 694 z "},"Å":{"ha":1215,"x_min":0,"x_max":1042,"o":"m 347 1389 l 694 1389 l 694 1215 l 347 1215 l 347 1389 m 347 1042 l 694 1042 l 694 868 l 868 868 l 868 694 l 1042 694 l 1042 0 l 694 0 l 694 347 l 347 347 l 347 0 l 0 0 l 0 694 l 174 694 l 174 868 l 347 868 l 347 1042 m 347 694 l 347 521 l 694 521 l 694 694 l 347 694 z "},"Æ":{"ha":1910,"x_min":0,"x_max":1736,"o":"m 694 521 l 347 521 l 347 0 l 0 0 l 0 868 l 174 868 l 174 1042 l 347 1042 l 347 1215 l 1736 1215 l 1736 1042 l 1042 1042 l 1042 694 l 1389 694 l 1389 521 l 1042 521 l 1042 174 l 1736 174 l 1736 0 l 694 0 l 694 521 m 694 868 l 347 868 l 347 694 l 694 694 l 694 868 z "},"Ç":{"ha":1215,"x_min":0,"x_max":1042,"o":"m 174 1042 l 868 1042 l 868 868 l 1042 868 l 1042 694 l 694 694 l 694 868 l 347 868 l 347 347 l 694 347 l 694 521 l 1042 521 l 1042 347 l 868 347 l 868 174 l 694 174 l 694 0 l 521 0 l 521 174 l 174 174 l 174 347 l 0 347 l 0 868 l 174 868 l 174 1042 m 174 0 l 521 0 l 521 -174 l 174 -174 l 174 0 z "},"È":{"ha":1042,"x_min":0,"x_max":868,"o":"m 0 868 l 868 868 l 868 694 l 347 694 l 347 521 l 521 521 l 521 347 l 347 347 l 347 174 l 868 174 l 868 0 l 0 0 l 0 868 m 521 1389 l 521 1215 l 694 1215 l 694 1042 l 347 1042 l 347 1215 l 174 1215 l 174 1389 l 521 1389 z "},"É":{"ha":1042,"x_min":0,"x_max":868,"o":"m 0 868 l 868 868 l 868 694 l 347 694 l 347 521 l 521 521 l 521 347 l 347 347 l 347 174 l 868 174 l 868 0 l 0 0 l 0 868 m 868 1389 l 868 1215 l 694 1215 l 694 1042 l 347 1042 l 347 1215 l 521 1215 l 521 1389 l 868 1389 z "},"Ê":{"ha":1042,"x_min":0,"x_max":868,"o":"m 0 868 l 868 868 l 868 694 l 347 694 l 347 521 l 521 521 l 521 347 l 347 347 l 347 174 l 868 174 l 868 0 l 0 0 l 0 868 m 174 1389 l 521 1389 l 521 1215 l 174 1215 l 174 1389 m 0 1215 l 174 1215 l 174 1042 l 0 1042 l 0 1215 m 521 1215 l 694 1215 l 694 1042 l 521 1042 l 521 1215 z "},"Ë":{"ha":1042,"x_min":0,"x_max":868,"o":"m 0 868 l 868 868 l 868 694 l 347 694 l 347 521 l 521 521 l 521 347 l 347 347 l 347 174 l 868 174 l 868 0 l 0 0 l 0 868 m 0 1215 l 174 1215 l 174 1042 l 0 1042 l 0 1215 m 521 1215 l 694 1215 l 694 1042 l 521 1042 l 521 1215 z "},"Ì":{"ha":868,"x_min":0,"x_max":694,"o":"m 0 868 l 694 868 l 694 694 l 521 694 l 521 174 l 694 174 l 694 0 l 0 0 l 0 174 l 174 174 l 174 694 l 0 694 l 0 868 m 347 1389 l 347 1215 l 521 1215 l 521 1042 l 174 1042 l 174 1215 l 0 1215 l 0 1389 l 347 1389 z "},"Í":{"ha":868,"x_min":0,"x_max":694,"o":"m 0 868 l 694 868 l 694 694 l 521 694 l 521 174 l 694 174 l 694 0 l 0 0 l 0 174 l 174 174 l 174 694 l 0 694 l 0 868 m 694 1389 l 694 1215 l 521 1215 l 521 1042 l 174 1042 l 174 1215 l 347 1215 l 347 1389 l 694 1389 z "},"Î":{"ha":868,"x_min":0,"x_max":694,"o":"m 174 1389 l 521 1389 l 521 1215 l 174 1215 l 174 1389 m 0 1215 l 174 1215 l 174 1042 l 0 1042 l 0 1215 m 521 1215 l 694 1215 l 694 1042 l 521 1042 l 521 1215 m 0 868 l 694 868 l 694 694 l 521 694 l 521 174 l 694 174 l 694 0 l 0 0 l 0 174 l 174 174 l 174 694 l 0 694 l 0 868 z "},"Ï":{"ha":868,"x_min":0,"x_max":694,"o":"m 0 1389 l 174 1389 l 174 1215 l 0 1215 l 0 1389 m 521 1389 l 694 1389 l 694 1215 l 521 1215 l 521 1389 m 0 1042 l 694 1042 l 694 868 l 521 868 l 521 174 l 694 174 l 694 0 l 0 0 l 0 174 l 174 174 l 174 868 l 0 868 l 0 1042 z "},"Ð":{"ha":1389,"x_min":0,"x_max":1215,"o":"m 174 1215 l 868 1215 l 868 1042 l 1042 1042 l 1042 868 l 1215 868 l 1215 347 l 1042 347 l 1042 174 l 868 174 l 868 0 l 174 0 l 174 521 l 0 521 l 0 694 l 174 694 l 174 1215 m 521 1042 l 521 694 l 694 694 l 694 521 l 521 521 l 521 174 l 694 174 l 694 347 l 868 347 l 868 868 l 694 868 l 694 1042 l 521 1042 z "},"Ñ":{"ha":1215,"x_min":0,"x_max":1042,"o":"m 174 1389 l 521 1389 l 521 1215 l 694 1215 l 694 1042 l 347 1042 l 347 1215 l 174 1215 l 174 1389 m 174 1042 l 347 1042 l 347 868 l 521 868 l 521 694 l 694 694 l 694 1042 l 1042 1042 l 1042 0 l 694 0 l 694 174 l 521 174 l 521 347 l 347 347 l 347 0 l 0 0 l 0 1215 l 174 1215 l 174 1042 m 694 1389 l 868 1389 l 868 1215 l 694 1215 l 694 1389 z "},"Ò":{"ha":1215,"x_min":0,"x_max":1042,"o":"m 174 868 l 868 868 l 868 694 l 1042 694 l 1042 174 l 868 174 l 868 0 l 174 0 l 174 174 l 0 174 l 0 694 l 174 694 l 174 868 m 347 694 l 347 174 l 694 174 l 694 694 l 347 694 m 521 1389 l 521 1215 l 694 1215 l 694 1042 l 347 1042 l 347 1215 l 174 1215 l 174 1389 l 521 1389 z "},"Ó":{"ha":1215,"x_min":0,"x_max":1042,"o":"m 174 868 l 868 868 l 868 694 l 1042 694 l 1042 174 l 868 174 l 868 0 l 174 0 l 174 174 l 0 174 l 0 694 l 174 694 l 174 868 m 347 694 l 347 174 l 694 174 l 694 694 l 347 694 m 868 1389 l 868 1215 l 694 1215 l 694 1042 l 347 1042 l 347 1215 l 521 1215 l 521 1389 l 868 1389 z "},"Ô":{"ha":1215,"x_min":0,"x_max":1042,"o":"m 174 868 l 868 868 l 868 694 l 1042 694 l 1042 174 l 868 174 l 868 0 l 174 0 l 174 174 l 0 174 l 0 694 l 174 694 l 174 868 m 347 694 l 347 174 l 694 174 l 694 694 l 347 694 m 347 1389 l 694 1389 l 694 1215 l 347 1215 l 347 1389 m 174 1215 l 347 1215 l 347 1042 l 174 1042 l 174 1215 m 694 1215 l 868 1215 l 868 1042 l 694 1042 l 694 1215 z "},"Õ":{"ha":1215,"x_min":0,"x_max":1042,"o":"m 174 1042 l 868 1042 l 868 868 l 1042 868 l 1042 174 l 868 174 l 868 0 l 174 0 l 174 174 l 0 174 l 0 868 l 174 868 l 174 1042 m 347 868 l 347 174 l 694 174 l 694 868 l 347 868 m 174 1389 l 868 1389 l 868 1215 l 174 1215 l 174 1389 z "},"Ö":{"ha":1215,"x_min":0,"x_max":1042,"o":"m 174 1042 l 868 1042 l 868 868 l 1042 868 l 1042 174 l 868 174 l 868 0 l 174 0 l 174 174 l 0 174 l 0 868 l 174 868 l 174 1042 m 347 868 l 347 174 l 694 174 l 694 868 l 347 868 m 174 1389 l 347 1389 l 347 1215 l 174 1215 l 174 1389 m 694 1389 l 868 1389 l 868 1215 l 694 1215 l 694 1389 z "},"×":{"ha":1215,"x_min":0,"x_max":1042,"o":"m 0 1042 l 347 1042 l 347 868 l 694 868 l 694 1042 l 1042 1042 l 1042 868 l 868 868 l 868 694 l 694 694 l 694 521 l 868 521 l 868 347 l 1042 347 l 1042 174 l 694 174 l 694 347 l 347 347 l 347 174 l 0 174 l 0 347 l 174 347 l 174 521 l 347 521 l 347 694 l 174 694 l 174 868 l 0 868 l 0 1042 z "},"Ø":{"ha":1215,"x_min":0,"x_max":1042,"o":"m 174 1215 l 868 1215 l 868 1042 l 1042 1042 l 1042 174 l 868 174 l 868 0 l 174 0 l 174 174 l 0 174 l 0 1042 l 174 1042 l 174 1215 m 347 1042 l 347 521 l 521 521 l 521 174 l 694 174 l 694 521 l 521 521 l 521 868 l 694 868 l 694 1042 l 347 1042 z "},"Ù":{"ha":1215,"x_min":0,"x_max":1042,"o":"m 0 868 l 347 868 l 347 174 l 694 174 l 694 868 l 1042 868 l 1042 174 l 868 174 l 868 0 l 174 0 l 174 174 l 0 174 l 0 868 m 521 1389 l 521 1215 l 694 1215 l 694 1042 l 347 1042 l 347 1215 l 174 1215 l 174 1389 l 521 1389 z "},"Ú":{"ha":1215,"x_min":0,"x_max":1042,"o":"m 0 868 l 347 868 l 347 174 l 694 174 l 694 868 l 1042 868 l 1042 174 l 868 174 l 868 0 l 174 0 l 174 174 l 0 174 l 0 868 m 868 1389 l 868 1215 l 694 1215 l 694 1042 l 347 1042 l 347 1215 l 521 1215 l 521 1389 l 868 1389 z "},"Û":{"ha":1215,"x_min":0,"x_max":1042,"o":"m 0 868 l 347 868 l 347 174 l 694 174 l 694 868 l 1042 868 l 1042 174 l 868 174 l 868 0 l 174 0 l 174 174 l 0 174 l 0 868 m 347 1389 l 694 1389 l 694 1215 l 347 1215 l 347 1389 m 174 1215 l 347 1215 l 347 1042 l 174 1042 l 174 1215 m 694 1215 l 868 1215 l 868 1042 l 694 1042 l 694 1215 z "},"Ü":{"ha":1215,"x_min":0,"x_max":1042,"o":"m 174 1389 l 347 1389 l 347 1215 l 174 1215 l 174 1389 m 694 1389 l 868 1389 l 868 1215 l 694 1215 l 694 1389 m 0 1042 l 347 1042 l 347 174 l 694 174 l 694 1042 l 1042 1042 l 1042 174 l 868 174 l 868 0 l 174 0 l 174 174 l 0 174 l 0 1042 z "},"Ý":{"ha":1215,"x_min":0,"x_max":1042,"o":"m 0 1042 l 347 1042 l 347 694 l 694 694 l 694 1042 l 1042 1042 l 1042 694 l 868 694 l 868 521 l 694 521 l 694 0 l 347 0 l 347 521 l 174 521 l 174 694 l 0 694 l 0 1042 m 868 1389 l 868 1215 l 694 1215 l 694 1042 l 347 1042 l 347 1215 l 521 1215 l 521 1389 l 868 1389 z "},"Þ":{"ha":1215,"x_min":0,"x_max":1042,"o":"m 0 1389 l 347 1389 l 347 1042 l 868 1042 l 868 868 l 1042 868 l 1042 521 l 868 521 l 868 347 l 347 347 l 347 0 l 0 0 l 0 1389 m 347 868 l 347 521 l 694 521 l 694 868 l 347 868 z "},"ß":{"ha":1215,"x_min":0,"x_max":1042,"o":"m 174 1215 l 868 1215 l 868 1042 l 1042 1042 l 1042 694 l 868 694 l 868 521 l 1042 521 l 1042 174 l 868 174 l 868 0 l 347 0 l 347 -174 l 0 -174 l 0 1042 l 174 1042 l 174 1215 m 347 1042 l 347 694 l 694 694 l 694 1042 l 347 1042 m 347 521 l 347 174 l 694 174 l 694 521 l 347 521 z "},"à":{"ha":1215,"x_min":0,"x_max":1042,"o":"m 174 868 l 868 868 l 868 694 l 1042 694 l 1042 0 l 174 0 l 174 174 l 0 174 l 0 347 l 174 347 l 174 521 l 694 521 l 694 694 l 174 694 l 174 868 m 347 347 l 347 174 l 694 174 l 694 347 l 347 347 m 521 1389 l 521 1215 l 694 1215 l 694 1042 l 347 1042 l 347 1215 l 174 1215 l 174 1389 l 521 1389 z "},"á":{"ha":1215,"x_min":0,"x_max":1042,"o":"m 174 868 l 868 868 l 868 694 l 1042 694 l 1042 0 l 174 0 l 174 174 l 0 174 l 0 347 l 174 347 l 174 521 l 694 521 l 694 694 l 174 694 l 174 868 m 347 347 l 347 174 l 694 174 l 694 347 l 347 347 m 868 1389 l 868 1215 l 694 1215 l 694 1042 l 347 1042 l 347 1215 l 521 1215 l 521 1389 l 868 1389 z "},"â":{"ha":1215,"x_min":0,"x_max":1042,"o":"m 347 1389 l 694 1389 l 694 1215 l 347 1215 l 347 1389 m 174 1215 l 347 1215 l 347 1042 l 174 1042 l 174 1215 m 694 1215 l 868 1215 l 868 1042 l 694 1042 l 694 1215 m 174 868 l 868 868 l 868 694 l 1042 694 l 1042 0 l 174 0 l 174 174 l 0 174 l 0 347 l 174 347 l 174 521 l 694 521 l 694 694 l 174 694 l 174 868 m 347 347 l 347 174 l 694 174 l 694 347 l 347 347 z "},"ã":{"ha":1215,"x_min":0,"x_max":1042,"o":"m 174 868 l 868 868 l 868 694 l 1042 694 l 1042 0 l 174 0 l 174 174 l 0 174 l 0 347 l 174 347 l 174 521 l 694 521 l 694 694 l 174 694 l 174 868 m 347 347 l 347 174 l 694 174 l 694 347 l 347 347 m 174 1215 l 868 1215 l 868 1042 l 174 1042 l 174 1215 z "},"ä":{"ha":1215,"x_min":0,"x_max":1042,"o":"m 174 868 l 868 868 l 868 694 l 1042 694 l 1042 0 l 174 0 l 174 174 l 0 174 l 0 347 l 174 347 l 174 521 l 694 521 l 694 694 l 174 694 l 174 868 m 347 347 l 347 174 l 694 174 l 694 347 l 347 347 m 174 1215 l 347 1215 l 347 1042 l 174 1042 l 174 1215 m 694 1215 l 868 1215 l 868 1042 l 694 1042 l 694 1215 z "},"å":{"ha":1215,"x_min":0,"x_max":1042,"o":"m 347 1215 l 694 1215 l 694 1042 l 347 1042 l 347 1215 m 174 868 l 868 868 l 868 694 l 1042 694 l 1042 0 l 174 0 l 174 174 l 0 174 l 0 347 l 174 347 l 174 521 l 694 521 l 694 694 l 174 694 l 174 868 m 347 347 l 347 174 l 694 174 l 694 347 l 347 347 z "},"æ":{"ha":1910,"x_min":0,"x_max":1736,"o":"m 174 0 l 174 174 l 0 174 l 0 347 l 174 347 l 174 521 l 694 521 l 694 694 l 174 694 l 174 868 l 1563 868 l 1563 694 l 1736 694 l 1736 347 l 1042 347 l 1042 174 l 1563 174 l 1563 0 l 174 0 m 1042 521 l 1389 521 l 1389 694 l 1042 694 l 1042 521 m 694 347 l 347 347 l 347 174 l 694 174 l 694 347 z "},"ç":{"ha":1042,"x_min":0,"x_max":868,"o":"m 174 868 l 868 868 l 868 694 l 347 694 l 347 347 l 868 347 l 868 174 l 694 174 l 694 0 l 521 0 l 521 174 l 174 174 l 174 347 l 0 347 l 0 694 l 174 694 l 174 868 m 174 0 l 521 0 l 521 -174 l 174 -174 l 174 0 z "},"è":{"ha":1215,"x_min":0,"x_max":1042,"o":"m 174 868 l 868 868 l 868 694 l 1042 694 l 1042 347 l 347 347 l 347 174 l 868 174 l 868 0 l 174 0 l 174 174 l 0 174 l 0 694 l 174 694 l 174 868 m 347 694 l 347 521 l 694 521 l 694 694 l 347 694 m 521 1389 l 521 1215 l 694 1215 l 694 1042 l 347 1042 l 347 1215 l 174 1215 l 174 1389 l 521 1389 z "},"é":{"ha":1215,"x_min":0,"x_max":1042,"o":"m 174 868 l 868 868 l 868 694 l 1042 694 l 1042 347 l 347 347 l 347 174 l 868 174 l 868 0 l 174 0 l 174 174 l 0 174 l 0 694 l 174 694 l 174 868 m 347 694 l 347 521 l 694 521 l 694 694 l 347 694 m 868 1389 l 868 1215 l 694 1215 l 694 1042 l 347 1042 l 347 1215 l 521 1215 l 521 1389 l 868 1389 z "},"ê":{"ha":1215,"x_min":0,"x_max":1042,"o":"m 347 1389 l 694 1389 l 694 1215 l 347 1215 l 347 1389 m 174 1215 l 347 1215 l 347 1042 l 174 1042 l 174 1215 m 694 1215 l 868 1215 l 868 1042 l 694 1042 l 694 1215 m 174 868 l 868 868 l 868 694 l 1042 694 l 1042 347 l 347 347 l 347 174 l 868 174 l 868 0 l 174 0 l 174 174 l 0 174 l 0 694 l 174 694 l 174 868 m 347 694 l 347 521 l 694 521 l 694 694 l 347 694 z "},"ë":{"ha":1215,"x_min":0,"x_max":1042,"o":"m 174 1215 l 347 1215 l 347 1042 l 174 1042 l 174 1215 m 694 1215 l 868 1215 l 868 1042 l 694 1042 l 694 1215 m 174 868 l 868 868 l 868 694 l 1042 694 l 1042 347 l 347 347 l 347 174 l 868 174 l 868 0 l 174 0 l 174 174 l 0 174 l 0 694 l 174 694 l 174 868 m 347 694 l 347 521 l 694 521 l 694 694 l 347 694 z "},"ì":{"ha":868,"x_min":0,"x_max":694,"o":"m 0 694 l 521 694 l 521 174 l 694 174 l 694 0 l 0 0 l 0 174 l 174 174 l 174 521 l 0 521 l 0 694 m 347 1215 l 347 1042 l 521 1042 l 521 868 l 174 868 l 174 1042 l 0 1042 l 0 1215 l 347 1215 z "},"í":{"ha":868,"x_min":0,"x_max":694,"o":"m 0 694 l 521 694 l 521 174 l 694 174 l 694 0 l 0 0 l 0 174 l 174 174 l 174 521 l 0 521 l 0 694 m 694 1215 l 694 1042 l 521 1042 l 521 868 l 174 868 l 174 1042 l 347 1042 l 347 1215 l 694 1215 z "},"î":{"ha":868,"x_min":0,"x_max":694,"o":"m 174 1215 l 347 1215 l 347 1042 l 174 1042 l 174 1215 m 0 1042 l 174 1042 l 174 868 l 0 868 l 0 1042 m 347 1042 l 521 1042 l 521 868 l 347 868 l 347 1042 m 0 694 l 521 694 l 521 174 l 694 174 l 694 0 l 0 0 l 0 174 l 174 174 l 174 521 l 0 521 l 0 694 z "},"ï":{"ha":868,"x_min":0,"x_max":694,"o":"m 0 868 l 521 868 l 521 174 l 694 174 l 694 0 l 0 0 l 0 174 l 174 174 l 174 694 l 0 694 l 0 868 m 0 1215 l 174 1215 l 174 1042 l 0 1042 l 0 1215 m 521 1215 l 694 1215 l 694 1042 l 521 1042 l 521 1215 z "},"ð":{"ha":1389,"x_min":0,"x_max":1215,"o":"m 694 1389 l 1042 1389 l 1042 1215 l 1215 1215 l 1215 1042 l 1042 1042 l 1042 174 l 868 174 l 868 0 l 174 0 l 174 174 l 0 174 l 0 694 l 174 694 l 174 868 l 694 868 l 694 1042 l 521 1042 l 521 1215 l 694 1215 l 694 1389 m 347 694 l 347 174 l 694 174 l 694 694 l 347 694 z "},"ñ":{"ha":1215,"x_min":0,"x_max":1042,"o":"m 0 868 l 868 868 l 868 694 l 1042 694 l 1042 0 l 694 0 l 694 694 l 347 694 l 347 0 l 0 0 l 0 868 m 174 1389 l 521 1389 l 521 1215 l 694 1215 l 694 1042 l 347 1042 l 347 1215 l 174 1215 l 174 1389 m 694 1389 l 868 1389 l 868 1215 l 694 1215 l 694 1389 m 0 1215 l 174 1215 l 174 1042 l 0 1042 l 0 1215 z "},"ò":{"ha":1215,"x_min":0,"x_max":1042,"o":"m 521 1215 l 521 1042 l 694 1042 l 694 868 l 347 868 l 347 1042 l 174 1042 l 174 1215 l 521 1215 m 174 694 l 868 694 l 868 521 l 1042 521 l 1042 174 l 868 174 l 868 0 l 174 0 l 174 174 l 0 174 l 0 521 l 174 521 l 174 694 m 347 521 l 347 174 l 694 174 l 694 521 l 347 521 z "},"ó":{"ha":1215,"x_min":0,"x_max":1042,"o":"m 868 1215 l 868 1042 l 694 1042 l 694 868 l 347 868 l 347 1042 l 521 1042 l 521 1215 l 868 1215 m 174 694 l 868 694 l 868 521 l 1042 521 l 1042 174 l 868 174 l 868 0 l 174 0 l 174 174 l 0 174 l 0 521 l 174 521 l 174 694 m 347 521 l 347 174 l 694 174 l 694 521 l 347 521 z "},"ô":{"ha":1215,"x_min":0,"x_max":1042,"o":"m 347 1215 l 694 1215 l 694 1042 l 347 1042 l 347 1215 m 174 1042 l 347 1042 l 347 868 l 174 868 l 174 1042 m 694 1042 l 868 1042 l 868 868 l 694 868 l 694 1042 m 174 694 l 868 694 l 868 521 l 1042 521 l 1042 174 l 868 174 l 868 0 l 174 0 l 174 174 l 0 174 l 0 521 l 174 521 l 174 694 m 347 521 l 347 174 l 694 174 l 694 521 l 347 521 z "},"õ":{"ha":1215,"x_min":0,"x_max":1042,"o":"m 174 868 l 868 868 l 868 694 l 1042 694 l 1042 174 l 868 174 l 868 0 l 174 0 l 174 174 l 0 174 l 0 694 l 174 694 l 174 868 m 347 694 l 347 174 l 694 174 l 694 694 l 347 694 m 174 1389 l 521 1389 l 521 1215 l 694 1215 l 694 1042 l 347 1042 l 347 1215 l 174 1215 l 174 1389 m 694 1389 l 868 1389 l 868 1215 l 694 1215 l 694 1389 m 0 1215 l 174 1215 l 174 1042 l 0 1042 l 0 1215 z "},"ö":{"ha":1215,"x_min":0,"x_max":1042,"o":"m 174 868 l 868 868 l 868 694 l 1042 694 l 1042 174 l 868 174 l 868 0 l 174 0 l 174 174 l 0 174 l 0 694 l 174 694 l 174 868 m 347 694 l 347 174 l 694 174 l 694 694 l 347 694 m 174 1215 l 347 1215 l 347 1042 l 174 1042 l 174 1215 m 694 1215 l 868 1215 l 868 1042 l 694 1042 l 694 1215 z "},"÷":{"ha":1215,"x_min":0,"x_max":1042,"o":"m 347 1042 l 694 1042 l 694 868 l 347 868 l 347 1042 m 0 694 l 1042 694 l 1042 521 l 0 521 l 0 694 m 347 347 l 694 347 l 694 174 l 347 174 l 347 347 z "},"ø":{"ha":1215,"x_min":0,"x_max":1042,"o":"m 174 868 l 868 868 l 868 694 l 1042 694 l 1042 174 l 868 174 l 868 0 l 174 0 l 174 174 l 0 174 l 0 694 l 174 694 l 174 868 m 347 694 l 347 347 l 521 347 l 521 174 l 694 174 l 694 347 l 521 347 l 521 521 l 694 521 l 694 694 l 347 694 z "},"ù":{"ha":1215,"x_min":0,"x_max":1042,"o":"m 0 694 l 347 694 l 347 174 l 694 174 l 694 694 l 1042 694 l 1042 0 l 174 0 l 174 174 l 0 174 l 0 694 m 521 1215 l 521 1042 l 694 1042 l 694 868 l 347 868 l 347 1042 l 174 1042 l 174 1215 l 521 1215 z "},"ú":{"ha":1215,"x_min":0,"x_max":1042,"o":"m 0 694 l 347 694 l 347 174 l 694 174 l 694 694 l 1042 694 l 1042 0 l 174 0 l 174 174 l 0 174 l 0 694 m 868 1215 l 868 1042 l 694 1042 l 694 868 l 347 868 l 347 1042 l 521 1042 l 521 1215 l 868 1215 z "},"û":{"ha":1215,"x_min":0,"x_max":1042,"o":"m 0 694 l 347 694 l 347 174 l 694 174 l 694 694 l 1042 694 l 1042 0 l 174 0 l 174 174 l 0 174 l 0 694 m 347 1215 l 694 1215 l 694 1042 l 347 1042 l 347 1215 m 174 1042 l 347 1042 l 347 868 l 174 868 l 174 1042 m 694 1042 l 868 1042 l 868 868 l 694 868 l 694 1042 z "},"ü":{"ha":1215,"x_min":0,"x_max":1042,"o":"m 0 868 l 347 868 l 347 174 l 694 174 l 694 868 l 1042 868 l 1042 0 l 174 0 l 174 174 l 0 174 l 0 868 m 174 1215 l 347 1215 l 347 1042 l 174 1042 l 174 1215 m 694 1215 l 868 1215 l 868 1042 l 694 1042 l 694 1215 z "},"ý":{"ha":1215,"x_min":0,"x_max":1042,"o":"m 0 868 l 347 868 l 347 347 l 694 347 l 694 868 l 1042 868 l 1042 174 l 868 174 l 868 0 l 694 0 l 694 -174 l 0 -174 l 0 0 l 521 0 l 521 174 l 174 174 l 174 347 l 0 347 l 0 868 m 868 1389 l 868 1215 l 694 1215 l 694 1042 l 347 1042 l 347 1215 l 521 1215 l 521 1389 l 868 1389 z "},"þ":{"ha":1215,"x_min":0,"x_max":1042,"o":"m 0 1215 l 347 1215 l 347 868 l 868 868 l 868 694 l 1042 694 l 1042 347 l 868 347 l 868 174 l 347 174 l 347 -174 l 0 -174 l 0 1215 m 347 694 l 347 347 l 694 347 l 694 694 l 347 694 z "},"ÿ":{"ha":1215,"x_min":0,"x_max":1042,"o":"m 0 868 l 347 868 l 347 347 l 694 347 l 694 868 l 1042 868 l 1042 174 l 868 174 l 868 0 l 694 0 l 694 -174 l 0 -174 l 0 0 l 521 0 l 521 174 l 174 174 l 174 347 l 0 347 l 0 868 m 174 1215 l 347 1215 l 347 1042 l 174 1042 l 174 1215 m 694 1215 l 868 1215 l 868 1042 l 694 1042 l 694 1215 z "},"ı":{"ha":868,"x_min":0,"x_max":694,"o":"m 0 868 l 521 868 l 521 174 l 694 174 l 694 0 l 0 0 l 0 174 l 174 174 l 174 694 l 0 694 l 0 868 z "},"ˆ":{"ha":868,"x_min":0,"x_max":694,"o":"m 174 1389 l 521 1389 l 521 1215 l 174 1215 l 174 1389 m 0 1215 l 174 1215 l 174 1042 l 0 1042 l 0 1215 m 521 1215 l 694 1215 l 694 1042 l 521 1042 l 521 1215 z "},"ˇ":{"ha":868,"x_min":0,"x_max":694,"o":"m 174 1215 l 521 1215 l 521 1042 l 174 1042 l 174 1215 m 0 1389 l 174 1389 l 174 1215 l 0 1215 l 0 1389 m 521 1389 l 694 1389 l 694 1215 l 521 1215 l 521 1389 z "},"˙":{"ha":347,"x_min":0,"x_max":174,"o":"m 0 1215 l 174 1215 l 174 1042 l 0 1042 l 0 1215 z "},"˚":{"ha":521,"x_min":0,"x_max":347,"o":"m 0 1215 l 347 1215 l 347 1042 l 0 1042 l 0 1215 z "},"ˉ":{"ha":1042,"x_min":0,"x_max":868,"o":"m 174 1389 l 521 1389 l 521 1215 l 694 1215 l 694 1042 l 347 1042 l 347 1215 l 174 1215 l 174 1389 m 694 1389 l 868 1389 l 868 1215 l 694 1215 l 694 1389 m 0 1215 l 174 1215 l 174 1042 l 0 1042 l 0 1215 z "},"–":{"ha":1215,"x_min":0,"x_max":1042,"o":"m 0 694 l 1042 694 l 1042 347 l 0 347 l 0 694 z "},"—":{"ha":1389,"x_min":0,"x_max":1215,"o":"m 0 694 l 1215 694 l 1215 347 l 0 347 l 0 694 z "},"‘":{"ha":521,"x_min":0,"x_max":347,"o":"m 0 1215 l 347 1215 l 347 694 l 0 694 l 0 1215 z "},"‚":{"ha":521,"x_min":0,"x_max":347,"o":"m 0 347 l 347 347 l 347 -174 l 0 -174 l 0 347 z "},"":{"ha":1215,"x_min":0,"x_max":1042,"o":"m 0 347 l 347 347 l 347 -174 l 0 -174 l 0 347 m 694 347 l 1042 347 l 1042 -174 l 694 -174 l 694 347 z "},"†":{"ha":868,"x_min":0,"x_max":694,"o":"m 174 1215 l 521 1215 l 521 868 l 694 868 l 694 694 l 521 694 l 521 347 l 521 174 l 521 -174 l 174 -174 l 174 174 l 174 347 l 174 694 l 0 694 l 0 868 l 174 868 l 174 1215 z "},"‡":{"ha":868,"x_min":0,"x_max":694,"o":"m 174 1215 l 521 1215 l 521 868 l 694 868 l 694 694 l 521 694 l 521 347 l 694 347 l 694 174 l 521 174 l 521 -174 l 174 -174 l 174 174 l 0 174 l 0 347 l 174 347 l 174 694 l 0 694 l 0 868 l 174 868 l 174 1215 z "},"•":{"ha":521,"x_min":0,"x_max":347,"o":"m 0 694 l 347 694 l 347 347 l 0 347 l 0 694 z "},"…":{"ha":1563,"x_min":0,"x_max":1389,"o":"m 0 347 l 347 347 l 347 0 l 0 0 l 0 347 m 521 347 l 868 347 l 868 0 l 521 0 l 521 347 m 1042 347 l 1389 347 l 1389 0 l 1042 0 l 1042 347 z "},"‹":{"ha":521,"x_min":0,"x_max":347,"o":"m 174 694 l 347 694 l 347 521 l 174 521 l 174 694 m 0 521 l 174 521 l 174 347 l 0 347 l 0 521 m 174 347 l 347 347 l 347 174 l 174 174 l 174 347 z "},"›":{"ha":521,"x_min":0,"x_max":347,"o":"m 174 521 l 0 521 l 0 694 l 174 694 l 174 521 m 347 347 l 174 347 l 174 521 l 347 521 l 347 347 m 174 174 l 0 174 l 0 347 l 174 347 l 174 174 z "},"⁄":{"ha":174,"x_min":-521,"x_max":694,"o":"m 521 1215 l 694 1215 l 694 1042 l 521 1042 l 521 1215 m 347 1042 l 521 1042 l 521 868 l 347 868 l 347 1042 m 174 868 l 347 868 l 347 694 l 174 694 l 174 868 m 0 694 l 174 694 l 174 521 l 0 521 l 0 694 m -174 521 l 0 521 l 0 347 l -174 347 l -174 521 m -347 347 l -174 347 l -174 174 l -347 174 l -347 347 m -521 174 l -347 174 l -347 0 l -521 0 l -521 174 z "},"₣":{"ha":1389,"x_min":0,"x_max":1215,"o":"m 174 1215 l 1215 1215 l 1215 1042 l 521 1042 l 521 694 l 868 694 l 868 521 l 521 521 l 521 347 l 694 347 l 694 174 l 521 174 l 521 0 l 174 0 l 174 174 l 0 174 l 0 347 l 174 347 l 174 1215 z "},"₤":{"ha":1389,"x_min":0,"x_max":1215,"o":"m 347 1215 l 1042 1215 l 1042 1042 l 1215 1042 l 1215 868 l 868 868 l 868 1042 l 521 1042 l 521 868 l 694 868 l 694 694 l 521 694 l 521 521 l 694 521 l 694 347 l 521 347 l 521 174 l 1215 174 l 1215 0 l 174 0 l 174 347 l 0 347 l 0 521 l 174 521 l 174 694 l 0 694 l 0 868 l 174 868 l 174 1042 l 347 1042 l 347 1215 z "},"₧":{"ha":2778,"x_min":0,"x_max":2604,"o":"m 0 1215 l 868 1215 l 868 1042 l 1042 1042 l 1042 868 l 1215 868 l 1215 1215 l 1563 1215 l 1563 868 l 2604 868 l 2604 694 l 1910 694 l 1910 521 l 2431 521 l 2431 347 l 2604 347 l 2604 174 l 2431 174 l 2431 0 l 1389 0 l 1389 174 l 1215 174 l 1215 694 l 868 694 l 868 521 l 347 521 l 347 0 l 0 0 l 0 1215 m 347 1042 l 347 694 l 694 694 l 694 1042 l 347 1042 m 1563 694 l 1563 174 l 2257 174 l 2257 347 l 1736 347 l 1736 694 l 1563 694 z "},"":{"ha":1389,"x_min":0,"x_max":1215,"o":"m 347 1215 l 1042 1215 l 1042 1042 l 1215 1042 l 1215 868 l 868 868 l 868 1042 l 521 1042 l 521 868 l 694 868 l 694 694 l 521 694 l 521 521 l 694 521 l 694 347 l 521 347 l 521 174 l 868 174 l 868 347 l 1215 347 l 1215 174 l 1042 174 l 1042 0 l 347 0 l 347 174 l 174 174 l 174 347 l 0 347 l 0 521 l 174 521 l 174 694 l 0 694 l 0 868 l 174 868 l 174 1042 l 347 1042 l 347 1215 z "},"№":{"ha":2257,"x_min":0,"x_max":2083,"o":"m 0 1215 l 347 1215 l 347 1042 l 521 1042 l 521 868 l 694 868 l 694 1215 l 1042 1215 l 1042 0 l 694 0 l 694 347 l 521 347 l 521 521 l 347 521 l 347 0 l 0 0 l 0 1215 m 1389 1042 l 1910 1042 l 1910 868 l 2083 868 l 2083 521 l 1910 521 l 1910 347 l 1389 347 l 1389 521 l 1215 521 l 1215 868 l 1389 868 l 1389 1042 m 1563 868 l 1563 521 l 1736 521 l 1736 868 l 1563 868 m 1215 174 l 2083 174 l 2083 0 l 1215 0 l 1215 174 z "},"":{"ha":1736,"x_min":0,"x_max":1563,"o":"m 0 1215 l 521 1215 l 521 1042 l 347 1042 l 347 521 l 174 521 l 174 1042 l 0 1042 l 0 1215 m 694 1215 l 868 1215 l 868 1042 l 1042 1042 l 1042 868 l 868 868 l 868 521 l 694 521 l 694 1215 m 1389 1215 l 1563 1215 l 1563 521 l 1389 521 l 1389 868 l 1215 868 l 1215 1042 l 1389 1042 l 1389 1215 m 1042 868 l 1215 868 l 1215 694 l 1042 694 l 1042 868 z "},"∂":{"ha":1215,"x_min":0,"x_max":1042,"o":"m 868 1042 l 1042 1042 l 1042 174 l 868 174 l 868 0 l 174 0 l 174 174 l 0 174 l 0 521 l 174 521 l 174 694 l 694 694 l 694 1042 l 347 1042 l 347 868 l 0 868 l 0 1042 l 174 1042 l 174 1215 l 868 1215 l 868 1042 m 347 521 l 347 174 l 694 174 l 694 521 l 347 521 z "},"Δ":{"ha":1389,"x_min":0,"x_max":1215,"o":"m 521 1215 l 694 1215 l 694 1042 l 521 1042 l 521 1215 m 347 1042 l 521 1042 l 521 694 l 347 694 l 347 1042 m 694 1042 l 868 1042 l 868 694 l 694 694 l 694 1042 m 174 694 l 347 694 l 347 347 l 174 347 l 174 694 m 868 694 l 1042 694 l 1042 347 l 868 347 l 868 694 m 0 347 l 174 347 l 174 174 l 1042 174 l 1042 347 l 1215 347 l 1215 0 l 0 0 l 0 347 z "},"Π":{"ha":1215,"x_min":0,"x_max":1042,"o":"m 0 1215 l 1042 1215 l 1042 0 l 694 0 l 694 1042 l 347 1042 l 347 0 l 0 0 l 0 1215 z "},"Σ":{"ha":1215,"x_min":0,"x_max":1042,"o":"m 0 1215 l 1042 1215 l 1042 1042 l 347 1042 l 347 868 l 521 868 l 521 694 l 694 694 l 694 521 l 521 521 l 521 347 l 347 347 l 347 174 l 1042 174 l 1042 0 l 0 0 l 0 347 l 174 347 l 174 521 l 347 521 l 347 694 l 174 694 l 174 868 l 0 868 l 0 1215 z "},"√":{"ha":1215,"x_min":0,"x_max":1042,"o":"m 694 1389 l 1042 1389 l 1042 1215 l 868 1215 l 868 1042 l 694 1042 l 694 1389 m 521 1042 l 694 1042 l 694 694 l 521 694 l 521 1042 m 347 694 l 521 694 l 521 347 l 347 347 l 347 694 m 0 521 l 174 521 l 174 347 l 0 347 l 0 521 m 174 347 l 347 347 l 347 0 l 174 0 l 174 347 z "},"∞":{"ha":1736,"x_min":0,"x_max":1563,"o":"m 174 868 l 694 868 l 694 694 l 868 694 l 868 868 l 1389 868 l 1389 694 l 1563 694 l 1563 347 l 1389 347 l 1389 174 l 868 174 l 868 347 l 694 347 l 694 174 l 174 174 l 174 347 l 0 347 l 0 694 l 174 694 l 174 868 m 347 694 l 347 347 l 521 347 l 521 694 l 347 694 m 1042 694 l 1042 347 l 1215 347 l 1215 694 l 1042 694 z "},"∫":{"ha":868,"x_min":0,"x_max":694,"o":"m 347 1215 l 694 1215 l 694 1042 l 521 1042 l 521 0 l 347 0 l 347 -174 l 0 -174 l 0 0 l 174 0 l 174 1042 l 347 1042 l 347 1215 z "},"≈":{"ha":1389,"x_min":0,"x_max":1215,"o":"m 174 868 l 521 868 l 521 694 l 174 694 l 174 868 m 0 694 l 174 694 l 174 521 l 0 521 l 0 694 m 521 694 l 694 694 l 694 521 l 521 521 l 521 694 m 1042 694 l 1215 694 l 1215 521 l 1042 521 l 1042 694 m 174 521 l 521 521 l 521 347 l 174 347 l 174 521 m 694 521 l 1042 521 l 1042 347 l 694 347 l 694 521 m 0 347 l 174 347 l 174 174 l 0 174 l 0 347 m 521 347 l 694 347 l 694 174 l 521 174 l 521 347 m 1042 347 l 1215 347 l 1215 174 l 1042 174 l 1042 347 m 694 174 l 1042 174 l 1042 0 l 694 0 l 694 174 z "},"≤":{"ha":1215,"x_min":0,"x_max":1042,"o":"m 1042 1042 l 694 1042 l 694 1215 l 1042 1215 l 1042 1042 m 694 868 l 347 868 l 347 1042 l 694 1042 l 694 868 m 347 694 l 0 694 l 0 868 l 347 868 l 347 694 m 694 521 l 347 521 l 347 694 l 694 694 l 694 521 m 1042 347 l 694 347 l 694 521 l 1042 521 l 1042 347 m 1042 0 l 0 0 l 0 174 l 1042 174 l 1042 0 z "},"≥":{"ha":1215,"x_min":0,"x_max":1042,"o":"m 0 1215 l 347 1215 l 347 1042 l 0 1042 l 0 1215 m 347 1042 l 694 1042 l 694 868 l 347 868 l 347 1042 m 694 868 l 1042 868 l 1042 694 l 694 694 l 694 868 m 347 694 l 694 694 l 694 521 l 347 521 l 347 694 m 0 521 l 347 521 l 347 347 l 0 347 l 0 521 m 0 174 l 1042 174 l 1042 0 l 0 0 l 0 174 z "},"":{"ha":1563,"x_min":0,"x_max":1389,"o":"m 1215 1215 l 1215 1042 l 521 1042 l 521 868 l 1215 868 l 1215 174 l 1389 174 l 1389 0 l 694 0 l 694 174 l 868 174 l 868 694 l 521 694 l 521 0 l 174 0 l 174 694 l 0 694 l 0 868 l 174 868 l 174 1042 l 347 1042 l 347 1215 l 1215 1215 z "},"":{"ha":1736,"x_min":0,"x_max":1563,"o":"m 521 1042 l 521 868 l 868 868 l 868 694 l 521 694 l 521 0 l 174 0 l 174 694 l 0 694 l 0 868 l 174 868 l 174 1042 l 347 1042 l 347 1215 l 1389 1215 l 1389 174 l 1563 174 l 1563 0 l 868 0 l 868 174 l 1042 174 l 1042 1042 l 521 1042 z "},"β":{"ha":1215,"x_min":0,"x_max":1042,"o":"m 347 1215 l 868 1215 l 868 1042 l 1042 1042 l 1042 694 l 868 694 l 868 521 l 1042 521 l 1042 174 l 868 174 l 868 0 l 174 0 l 174 -174 l 0 -174 l 0 694 l 174 694 l 174 1042 l 347 1042 l 347 1215 m 521 1042 l 521 694 l 694 694 l 694 1042 l 521 1042 m 347 521 l 347 174 l 694 174 l 694 521 l 347 521 z "}," ":{"ha":521,"x_min":0,"x_max":0,"o":""},"ﬃ":{"ha":2257,"x_min":0,"x_max":2083,"o":"m 868 1042 l 1042 1042 l 1042 1215 l 1910 1215 l 1910 1042 l 1215 1042 l 1215 868 l 1910 868 l 1910 174 l 2083 174 l 2083 0 l 1389 0 l 1389 174 l 1563 174 l 1563 694 l 1215 694 l 1215 0 l 868 0 l 868 694 l 521 694 l 521 0 l 174 0 l 174 694 l 0 694 l 0 868 l 174 868 l 174 1042 l 347 1042 l 347 1215 l 868 1215 l 868 1042 m 868 1042 l 521 1042 l 521 868 l 868 868 l 868 1042 z "},"ﬄ":{"ha":2604,"x_min":0,"x_max":2431,"o":"m 521 694 l 521 0 l 174 0 l 174 694 l 0 694 l 0 868 l 174 868 l 174 1042 l 347 1042 l 347 1215 l 868 1215 l 868 1042 l 521 1042 l 521 868 l 1042 868 l 1042 1042 l 1215 1042 l 1215 1215 l 2257 1215 l 2257 174 l 2431 174 l 2431 0 l 1736 0 l 1736 174 l 1910 174 l 1910 1042 l 1389 1042 l 1389 868 l 1736 868 l 1736 694 l 1389 694 l 1389 0 l 1042 0 l 1042 694 l 521 694 z "},"ﬀ":{"ha":1910,"x_min":0,"x_max":1736,"o":"m 521 694 l 521 0 l 174 0 l 174 694 l 0 694 l 0 868 l 174 868 l 174 1042 l 347 1042 l 347 1215 l 868 1215 l 868 1042 l 521 1042 l 521 868 l 1042 868 l 1042 1042 l 1215 1042 l 1215 1215 l 1736 1215 l 1736 1042 l 1389 1042 l 1389 868 l 1736 868 l 1736 694 l 1389 694 l 1389 0 l 1042 0 l 1042 694 l 521 694 z "},"Ĳ":{"ha":1736,"x_min":0,"x_max":1563,"o":"m 0 1215 l 694 1215 l 694 1042 l 521 1042 l 521 174 l 694 174 l 694 0 l 0 0 l 0 174 l 174 174 l 174 1042 l 0 1042 l 0 1215 m 868 1215 l 1563 1215 l 1563 1042 l 1389 1042 l 1389 174 l 1215 174 l 1215 0 l 868 0 l 868 174 l 1042 174 l 1042 1042 l 868 1042 l 868 1215 z "},"ĳ":{"ha":1389,"x_min":0,"x_max":1215,"o":"m 174 1042 l 521 1042 l 521 868 l 174 868 l 174 1042 m 0 694 l 521 694 l 521 174 l 174 174 l 174 521 l 0 521 l 0 694 m 868 1042 l 1215 1042 l 1215 868 l 868 868 l 868 1042 m 868 694 l 1215 694 l 1215 0 l 1042 0 l 1042 -174 l 0 -174 l 0 0 l 868 0 l 868 694 z "},"Œ":{"ha":1910,"x_min":0,"x_max":1736,"o":"m 174 0 l 174 174 l 0 174 l 0 1042 l 174 1042 l 174 1215 l 1736 1215 l 1736 1042 l 1042 1042 l 1042 694 l 1389 694 l 1389 521 l 1042 521 l 1042 174 l 1736 174 l 1736 0 l 174 0 m 694 1042 l 347 1042 l 347 174 l 694 174 l 694 1042 z "},"œ":{"ha":1910,"x_min":0,"x_max":1736,"o":"m 174 0 l 174 174 l 0 174 l 0 694 l 174 694 l 174 868 l 1563 868 l 1563 694 l 1736 694 l 1736 347 l 1042 347 l 1042 174 l 1563 174 l 1563 0 l 174 0 m 1042 521 l 1389 521 l 1389 694 l 1042 694 l 1042 521 m 694 694 l 347 694 l 347 174 l 694 174 l 694 694 z "},"ﬅ":{"ha":1910,"x_min":0,"x_max":1736,"o":"m 347 1215 l 868 1215 l 868 1042 l 521 1042 l 521 868 l 521 694 l 521 0 l 174 0 l 174 694 l 0 694 l 0 868 l 174 868 l 174 1042 l 347 1042 l 347 1215 m 1042 1215 l 1389 1215 l 1389 868 l 1736 868 l 1736 694 l 1389 694 l 1389 174 l 1736 174 l 1736 0 l 1215 0 l 1215 174 l 1042 174 l 1042 694 l 694 694 l 694 868 l 1042 868 l 1042 1215 z "},"ﬆ":{"ha":2083,"x_min":0,"x_max":1910,"o":"m 347 694 l 347 521 l 868 521 l 868 347 l 1042 347 l 1042 174 l 868 174 l 868 0 l 0 0 l 0 174 l 694 174 l 694 347 l 174 347 l 174 521 l 0 521 l 0 694 l 174 694 l 174 868 l 1215 868 l 1215 1215 l 1563 1215 l 1563 868 l 1910 868 l 1910 694 l 1563 694 l 1563 174 l 1910 174 l 1910 0 l 1389 0 l 1389 174 l 1215 174 l 1215 694 l 347 694 z "},"":{"ha":1389,"x_min":0,"x_max":1215,"o":"m 1215 1215 l 1215 1042 l 521 1042 l 521 868 l 1215 868 l 1215 0 l 1042 0 l 1042 -174 l 694 -174 l 694 0 l 868 0 l 868 694 l 521 694 l 521 0 l 174 0 l 174 694 l 0 694 l 0 868 l 174 868 l 174 1042 l 347 1042 l 347 1215 l 1215 1215 z "},"ſ":{"ha":1042,"x_min":0,"x_max":868,"o":"m 347 1215 l 868 1215 l 868 1042 l 521 1042 l 521 0 l 174 0 l 174 694 l 0 694 l 0 868 l 174 868 l 174 1042 l 347 1042 l 347 1215 z "},"š":{"ha":1215,"x_min":0,"x_max":1042,"o":"m 174 868 l 1042 868 l 1042 694 l 347 694 l 347 521 l 868 521 l 868 347 l 1042 347 l 1042 174 l 868 174 l 868 0 l 0 0 l 0 174 l 694 174 l 694 347 l 174 347 l 174 521 l 0 521 l 0 694 l 174 694 l 174 868 m 347 1215 l 694 1215 l 694 1042 l 347 1042 l 347 1215 m 174 1389 l 347 1389 l 347 1215 l 174 1215 l 174 1389 m 694 1389 l 868 1389 l 868 1215 l 694 1215 l 694 1389 z "},"Š":{"ha":1215,"x_min":0,"x_max":1042,"o":"m 174 1389 l 347 1389 l 347 1215 l 174 1215 l 174 1389 m 694 1389 l 868 1389 l 868 1215 l 694 1215 l 694 1389 m 347 1215 l 694 1215 l 694 1042 l 868 1042 l 868 868 l 347 868 l 347 694 l 868 694 l 868 521 l 1042 521 l 1042 174 l 868 174 l 868 0 l 174 0 l 174 174 l 0 174 l 0 347 l 347 347 l 347 174 l 694 174 l 694 521 l 174 521 l 174 694 l 0 694 l 0 868 l 174 868 l 174 1042 l 347 1042 l 347 1215 z "},"ř":{"ha":1215,"x_min":0,"x_max":1042,"o":"m 0 868 l 868 868 l 868 694 l 1042 694 l 1042 521 l 694 521 l 694 694 l 347 694 l 347 0 l 0 0 l 0 868 m 347 1215 l 694 1215 l 694 1042 l 347 1042 l 347 1215 m 174 1389 l 347 1389 l 347 1215 l 174 1215 l 174 1389 m 694 1389 l 868 1389 l 868 1215 l 694 1215 l 694 1389 z "},"Ř":{"ha":1215,"x_min":0,"x_max":1042,"o":"m 174 1389 l 347 1389 l 347 1215 l 174 1215 l 174 1389 m 694 1389 l 868 1389 l 868 1215 l 694 1215 l 694 1389 m 347 1215 l 694 1215 l 694 1042 l 868 1042 l 868 868 l 1042 868 l 1042 694 l 868 694 l 868 521 l 694 521 l 694 347 l 868 347 l 868 174 l 1042 174 l 1042 0 l 694 0 l 694 174 l 521 174 l 521 347 l 347 347 l 347 0 l 0 0 l 0 1042 l 347 1042 l 347 1215 m 347 868 l 347 694 l 694 694 l 694 868 l 347 868 z "},"ž":{"ha":1215,"x_min":0,"x_max":1042,"o":"m 0 868 l 1042 868 l 1042 694 l 868 694 l 868 521 l 694 521 l 694 347 l 521 347 l 521 174 l 1042 174 l 1042 0 l 0 0 l 0 174 l 174 174 l 174 347 l 347 347 l 347 521 l 521 521 l 521 694 l 0 694 l 0 868 m 347 1215 l 694 1215 l 694 1042 l 347 1042 l 347 1215 m 174 1389 l 347 1389 l 347 1215 l 174 1215 l 174 1389 m 694 1389 l 868 1389 l 868 1215 l 694 1215 l 694 1389 z "},"Ž":{"ha":1215,"x_min":0,"x_max":1042,"o":"m 174 1389 l 347 1389 l 347 1215 l 174 1215 l 174 1389 m 694 1389 l 868 1389 l 868 1215 l 694 1215 l 694 1389 m 347 1215 l 694 1215 l 694 1042 l 1042 1042 l 1042 694 l 868 694 l 868 521 l 694 521 l 694 347 l 521 347 l 521 174 l 1042 174 l 1042 0 l 0 0 l 0 174 l 174 174 l 174 347 l 347 347 l 347 521 l 521 521 l 521 694 l 694 694 l 694 868 l 0 868 l 0 1042 l 347 1042 l 347 1215 z "},"ƒ":{"ha":1042,"x_min":0,"x_max":868,"o":"m 347 1215 l 868 1215 l 868 1042 l 521 1042 l 521 868 l 868 868 l 868 694 l 521 694 l 521 0 l 347 0 l 347 -174 l 0 -174 l 0 0 l 174 0 l 174 694 l 0 694 l 0 868 l 174 868 l 174 1042 l 347 1042 l 347 1215 z "},"←":{"ha":1389,"x_min":0,"x_max":1215,"o":"m 347 1042 l 521 1042 l 521 694 l 1215 694 l 1215 347 l 521 347 l 521 0 l 347 0 l 347 174 l 174 174 l 174 347 l 0 347 l 0 694 l 174 694 l 174 868 l 347 868 l 347 1042 z "},"→":{"ha":1389,"x_min":0,"x_max":1215,"o":"m 868 868 l 1042 868 l 1042 694 l 1215 694 l 1215 347 l 1042 347 l 1042 174 l 868 174 l 868 0 l 694 0 l 694 347 l 0 347 l 0 694 l 694 694 l 694 1042 l 868 1042 l 868 868 z "},"↔":{"ha":1389,"x_min":0,"x_max":1215,"o":"m 174 694 l 174 868 l 347 868 l 347 1042 l 521 1042 l 521 694 l 694 694 l 694 1042 l 868 1042 l 868 868 l 1042 868 l 1042 694 l 1215 694 l 1215 347 l 1042 347 l 1042 174 l 868 174 l 868 0 l 694 0 l 694 347 l 521 347 l 521 0 l 347 0 l 347 174 l 174 174 l 174 347 l 0 347 l 0 694 l 174 694 z "},"↑":{"ha":1215,"x_min":0,"x_max":1042,"o":"m 1042 868 l 1042 694 l 694 694 l 694 0 l 347 0 l 347 694 l 0 694 l 0 868 l 174 868 l 174 1042 l 347 1042 l 347 1215 l 694 1215 l 694 1042 l 868 1042 l 868 868 l 1042 868 z "},"↓":{"ha":1215,"x_min":0,"x_max":1042,"o":"m 868 347 l 868 174 l 694 174 l 694 0 l 347 0 l 347 174 l 174 174 l 174 347 l 0 347 l 0 521 l 347 521 l 347 1215 l 694 1215 l 694 521 l 1042 521 l 1042 347 l 868 347 z "},"↕":{"ha":1215,"x_min":0,"x_max":1042,"o":"m 694 521 l 1042 521 l 1042 347 l 868 347 l 868 174 l 694 174 l 694 0 l 347 0 l 347 174 l 174 174 l 174 347 l 0 347 l 0 521 l 347 521 l 347 694 l 0 694 l 0 868 l 174 868 l 174 1042 l 347 1042 l 347 1215 l 694 1215 l 694 1042 l 868 1042 l 868 868 l 1042 868 l 1042 694 l 694 694 l 694 521 z "}," ":{"ha":1563,"x_min":0,"x_max":0,"o":""}," ":{"ha":868,"x_min":0,"x_max":0,"o":""},"π":{"ha":1563,"x_min":0,"x_max":1389,"o":"m 0 868 l 1389 868 l 1389 694 l 1215 694 l 1215 174 l 1389 174 l 1389 0 l 1042 0 l 1042 174 l 868 174 l 868 694 l 521 694 l 521 0 l 174 0 l 174 694 l 0 694 l 0 868 z "},"‰":{"ha":1736,"x_min":0,"x_max":1563,"o":"m 0 1215 l 347 1215 l 347 868 l 0 868 l 0 1215 m 868 1215 l 1215 1215 l 1215 1042 l 1042 1042 l 1042 868 l 868 868 l 868 694 l 694 694 l 694 521 l 521 521 l 521 347 l 347 347 l 347 174 l 174 174 l 174 0 l 0 0 l 0 347 l 174 347 l 174 521 l 347 521 l 347 694 l 521 694 l 521 868 l 694 868 l 694 1042 l 868 1042 l 868 1215 m 694 347 l 1042 347 l 1042 0 l 694 0 l 694 347 m 1215 347 l 1563 347 l 1563 0 l 1215 0 l 1215 347 z "},"Ÿ":{"ha":1215,"x_min":0,"x_max":1042,"o":"m 347 1042 m 0 1042 l 347 1042 l 347 694 l 694 694 l 694 1042 l 1042 1042 l 1042 694 l 868 694 l 868 521 l 694 521 l 694 0 l 347 0 l 347 521 l 174 521 l 174 694 l 0 694 l 0 1042 m 174 1389 l 347 1389 l 347 1215 l 174 1215 l 174 1389 m 694 1389 l 868 1389 l 868 1215 l 694 1215 l 694 1389 z "},"⸮":{"ha":1215,"x_min":0,"x_max":1042,"o":"m 868 1042 l 1042 1042 l 1042 868 l 694 868 l 694 1042 l 347 1042 l 347 694 l 521 694 l 521 521 l 694 521 l 694 347 l 347 347 l 347 521 l 174 521 l 174 694 l 0 694 l 0 1042 l 174 1042 l 174 1215 l 868 1215 l 868 1042 m 694 0 l 347 0 l 347 174 l 694 174 l 694 0 z "},"ẞ":{"ha":1389,"x_min":0,"x_max":1215,"o":"m 174 1215 l 1042 1215 l 1042 1042 l 1215 1042 l 1215 868 l 1042 868 l 1042 521 l 1215 521 l 1215 174 l 1042 174 l 1042 0 l 521 0 l 521 174 l 868 174 l 868 521 l 521 521 l 521 694 l 694 694 l 694 868 l 868 868 l 868 1042 l 347 1042 l 347 0 l 0 0 l 0 1042 l 174 1042 l 174 1215 z "},"":{"ha":2083,"x_min":0,"x_max":1910,"o":"m 868 1042 l 1042 1042 l 1042 1215 l 1910 1215 l 1910 1042 l 1215 1042 l 1215 868 l 1910 868 l 1910 0 l 1736 0 l 1736 -174 l 1389 -174 l 1389 0 l 1563 0 l 1563 694 l 1215 694 l 1215 0 l 868 0 l 868 694 l 521 694 l 521 0 l 174 0 l 174 694 l 0 694 l 0 868 l 174 868 l 174 1042 l 347 1042 l 347 1215 l 868 1215 l 868 1042 m 868 1042 l 521 1042 l 521 868 l 868 868 l 868 1042 z "},"ᵫ":{"ha":1910,"x_min":0,"x_max":1736,"o":"m 174 0 l 174 174 l 0 174 l 0 868 l 347 868 l 347 174 l 694 174 l 694 868 l 1563 868 l 1563 694 l 1736 694 l 1736 347 l 1042 347 l 1042 174 l 1563 174 l 1563 0 l 174 0 m 1042 521 l 1389 521 l 1389 694 l 1042 694 l 1042 521 z "},"⋮":{"ha":521,"x_min":0,"x_max":347,"o":"m 0 -174 l 0 174 l 347 174 l 347 -174 l 0 -174 m 0 347 l 0 694 l 347 694 l 347 347 l 0 347 m 0 868 l 0 1215 l 347 1215 l 347 868 l 0 868 z "},"⋯":{"ha":1563,"x_min":0,"x_max":1389,"o":"m 0 868 l 347 868 l 347 521 l 0 521 l 0 868 m 521 868 l 868 868 l 868 521 l 521 521 l 521 868 m 1042 868 l 1389 868 l 1389 521 l 1042 521 l 1042 868 z "},"℗":{"ha":1389,"x_min":0,"x_max":1215,"o":"m 174 1215 l 1042 1215 l 1042 1042 l 174 1042 l 174 1215 m 0 1042 l 174 1042 l 174 0 l 0 0 l 0 1042 m 1042 1042 l 1215 1042 l 1215 0 l 1042 0 l 1042 1042 m 347 868 l 868 868 l 868 347 l 521 347 l 521 174 l 347 174 l 347 868 m 521 694 l 521 521 l 694 521 l 694 694 l 521 694 m 174 0 l 1042 0 l 1042 -174 l 174 -174 l 174 0 z "},"〈":{"ha":694,"x_min":0,"x_max":521,"o":"m 347 1389 l 521 1389 l 521 1042 l 347 1042 l 347 1389 m 174 1042 l 347 1042 l 347 694 l 174 694 l 174 1042 m 0 694 l 174 694 l 174 521 l 0 521 l 0 694 m 174 521 l 347 521 l 347 174 l 174 174 l 174 521 m 347 174 l 521 174 l 521 -174 l 347 -174 l 347 174 z "},"〉":{"ha":694,"x_min":0,"x_max":521,"o":"m 174 1042 l 0 1042 l 0 1389 l 174 1389 l 174 1042 m 347 694 l 174 694 l 174 1042 l 347 1042 l 347 694 m 521 521 l 347 521 l 347 694 l 521 694 l 521 521 m 347 174 l 174 174 l 174 521 l 347 521 l 347 174 m 174 -174 l 0 -174 l 0 174 l 174 174 l 174 -174 z "},"♥":{"ha":1389,"x_min":0,"x_max":1215,"o":"m 174 1042 l 521 1042 l 521 868 l 694 868 l 694 1042 l 1042 1042 l 1042 868 l 1215 868 l 1215 521 l 1042 521 l 1042 347 l 868 347 l 868 174 l 694 174 l 694 0 l 521 0 l 521 174 l 347 174 l 347 347 l 174 347 l 174 521 l 0 521 l 0 868 l 174 868 l 174 1042 z "}}}
